<svg id="svg" version="1.1" xmlns="http://www.w3.org/2000/svg" xmlns:xlink="http://www.w3.org/1999/xlink" width="400" height="400" viewBox="0, 0, 400,400"><g id="svgg"><path id="path0" d="M0.000 200.000 L 0.000 400.000 1.000 400.000 C 2.005 400.000,2.394 399.091,1.600 398.600 C 0.973 398.212,1.053 2.307,1.680 1.680 C 2.307 1.053,398.212 0.973,398.600 1.600 C 399.091 2.394,400.000 2.005,400.000 1.000 L 400.000 0.000 200.000 0.000 L 0.000 0.000 0.000 200.000 M76.814 78.774 C 76.257 79.815,76.233 319.909,76.790 321.374 L 77.180 322.400 108.310 322.400 C 131.989 322.400,139.555 322.285,139.920 321.920 C 140.674 321.166,140.600 296.664,139.842 296.035 C 139.436 295.698,134.369 295.584,121.207 295.616 C 104.578 295.657,103.069 295.605,102.364 294.967 C 101.612 294.287,101.597 292.200,101.601 186.681 C 101.605 107.298,101.487 78.946,101.154 78.544 C 100.328 77.549,77.353 77.766,76.814 78.774 M208.400 78.598 C 206.090 78.872,203.480 79.382,202.600 79.731 C 201.720 80.080,200.588 80.373,200.084 80.382 C 199.580 80.392,198.500 80.738,197.684 81.151 C 196.868 81.564,195.627 82.026,194.928 82.177 C 194.228 82.328,193.441 82.710,193.179 83.026 C 192.917 83.342,192.538 83.600,192.338 83.600 C 191.823 83.600,189.680 84.634,187.800 85.789 C 186.920 86.329,185.615 87.051,184.900 87.391 C 184.185 87.732,183.600 88.176,183.600 88.378 C 183.600 88.581,183.242 88.860,182.804 88.999 C 181.945 89.271,173.115 97.880,171.800 99.727 C 171.360 100.345,170.730 101.160,170.400 101.538 C 170.070 101.916,169.481 102.849,169.092 103.612 C 168.702 104.376,167.946 105.720,167.411 106.600 C 166.876 107.480,166.235 108.650,165.986 109.200 C 165.737 109.750,165.189 110.866,164.767 111.679 C 164.345 112.493,164.000 113.400,164.000 113.695 C 164.000 113.990,163.642 114.933,163.204 115.792 C 162.767 116.650,162.239 118.173,162.031 119.176 C 161.824 120.179,161.390 121.810,161.067 122.800 C 160.745 123.790,160.287 126.130,160.051 128.000 C 159.815 129.870,159.447 132.300,159.235 133.400 C 158.506 137.166,158.719 148.112,159.615 152.976 C 161.256 161.880,162.105 165.349,163.249 167.826 C 163.662 168.721,164.000 169.713,164.000 170.032 C 164.000 170.351,164.336 171.239,164.747 172.006 C 165.157 172.773,165.622 173.985,165.778 174.700 C 165.935 175.415,166.215 176.000,166.400 176.000 C 166.584 176.000,167.030 176.886,167.390 177.969 C 167.750 179.052,168.304 180.154,168.622 180.418 C 168.940 180.682,169.200 181.212,169.200 181.595 C 169.200 181.978,169.535 182.721,169.945 183.246 C 170.355 183.771,170.829 184.650,171.000 185.200 C 171.171 185.750,171.645 186.629,172.055 187.154 C 172.465 187.679,172.800 188.326,172.800 188.592 C 172.800 188.858,173.144 189.387,173.564 189.767 C 173.984 190.148,174.448 190.941,174.595 191.529 C 174.742 192.118,175.147 192.916,175.496 193.303 C 176.176 194.057,176.750 194.991,177.884 197.188 C 178.278 197.951,178.915 198.896,179.300 199.288 C 179.685 199.679,180.000 200.248,180.000 200.551 C 180.000 200.854,180.280 201.335,180.623 201.619 C 180.966 201.904,181.512 202.691,181.837 203.368 C 182.162 204.046,182.871 205.320,183.413 206.200 C 183.955 207.080,184.773 208.520,185.233 209.400 C 185.692 210.280,186.503 211.720,187.036 212.600 C 187.569 213.480,188.301 214.875,188.663 215.700 C 189.025 216.525,189.452 217.200,189.612 217.200 C 189.772 217.200,190.138 217.785,190.424 218.500 C 190.711 219.215,191.273 220.229,191.673 220.754 C 192.073 221.279,192.400 221.946,192.400 222.236 C 192.400 222.527,192.850 223.428,193.400 224.238 C 193.950 225.049,194.400 225.969,194.400 226.284 C 194.400 226.599,194.679 227.136,195.020 227.477 C 195.360 227.818,195.742 228.611,195.868 229.239 C 195.994 229.868,196.343 230.587,196.645 230.838 C 196.947 231.088,197.392 232.037,197.634 232.947 C 197.876 233.856,198.314 234.870,198.606 235.200 C 198.898 235.530,199.266 236.340,199.423 237.000 C 199.580 237.660,199.950 238.650,200.246 239.200 C 200.979 240.567,202.367 244.613,202.853 246.800 C 203.072 247.790,203.555 249.500,203.926 250.600 C 204.913 253.528,204.913 269.671,203.926 272.600 C 203.556 273.700,203.054 275.365,202.810 276.300 C 202.567 277.235,202.215 278.000,202.027 278.000 C 201.840 278.000,201.566 278.480,201.419 279.066 C 200.914 281.078,192.693 290.000,191.344 290.000 C 191.130 290.000,190.345 290.450,189.600 291.000 C 188.855 291.550,187.979 292.000,187.654 292.000 C 187.329 292.000,186.752 292.282,186.372 292.626 C 185.992 292.970,184.807 293.498,183.740 293.800 C 182.673 294.101,181.028 294.631,180.085 294.977 C 178.934 295.400,176.196 295.692,171.750 295.867 C 166.862 296.060,164.981 296.276,164.564 296.693 C 163.979 297.278,163.684 319.911,164.243 321.367 C 164.725 322.624,183.318 321.994,186.800 320.603 C 187.570 320.296,189.162 319.852,190.338 319.618 C 191.514 319.384,192.859 318.924,193.327 318.596 C 193.795 318.268,194.454 318.000,194.792 318.000 C 195.130 318.000,196.252 317.550,197.285 317.000 C 198.318 316.450,199.359 316.000,199.598 316.000 C 199.837 316.000,200.520 315.664,201.116 315.254 C 201.712 314.844,203.256 313.809,204.546 312.954 C 205.836 312.099,207.525 310.977,208.299 310.461 C 210.633 308.902,217.281 301.949,219.176 299.085 C 220.153 297.608,221.098 296.400,221.276 296.400 C 221.454 296.400,221.600 296.155,221.600 295.856 C 221.600 295.557,222.050 294.649,222.600 293.838 C 223.150 293.028,223.600 292.127,223.600 291.836 C 223.600 291.546,223.960 290.850,224.400 290.291 C 224.840 289.731,225.202 289.032,225.204 288.737 C 225.206 288.442,225.650 287.300,226.191 286.200 C 226.732 285.100,227.181 283.873,227.187 283.474 C 227.194 283.075,227.547 281.905,227.972 280.874 C 228.396 279.843,228.947 277.753,229.196 276.229 C 229.445 274.704,229.818 273.140,230.026 272.752 C 231.410 270.166,231.257 246.519,229.830 242.482 C 229.496 241.537,229.099 239.827,228.947 238.682 C 228.795 237.537,228.344 235.880,227.944 235.000 C 227.545 234.120,227.208 232.950,227.196 232.400 C 227.185 231.850,226.732 230.500,226.191 229.400 C 225.650 228.300,225.206 227.166,225.204 226.879 C 225.202 226.593,224.856 225.693,224.435 224.879 C 224.014 224.066,223.188 222.320,222.599 221.000 C 222.011 219.680,221.368 218.330,221.172 218.000 C 220.975 217.670,220.078 215.960,219.178 214.200 C 218.278 212.440,217.104 210.280,216.568 209.400 C 216.033 208.520,215.299 207.125,214.937 206.300 C 214.575 205.475,214.124 204.800,213.936 204.800 C 213.748 204.800,213.305 204.080,212.953 203.200 C 212.601 202.320,212.165 201.600,211.984 201.600 C 211.802 201.600,211.531 201.195,211.381 200.700 C 211.231 200.205,210.781 199.440,210.381 199.000 C 209.981 198.560,209.458 197.750,209.219 197.200 C 208.980 196.650,208.254 195.390,207.607 194.400 C 206.960 193.410,206.147 192.060,205.801 191.400 C 205.455 190.740,204.729 189.480,204.187 188.600 C 203.645 187.720,202.827 186.280,202.367 185.400 C 201.908 184.520,201.100 183.080,200.572 182.200 C 199.681 180.716,198.878 179.215,197.362 176.200 C 197.030 175.540,196.586 174.730,196.376 174.400 C 196.166 174.070,195.815 173.395,195.597 172.900 C 195.379 172.405,195.021 171.595,194.803 171.100 C 194.585 170.605,194.236 169.930,194.029 169.600 C 193.822 169.270,193.171 167.920,192.582 166.600 C 191.993 165.280,191.172 163.534,190.756 162.721 C 190.340 161.907,189.998 161.007,189.996 160.721 C 189.994 160.434,189.550 159.300,189.009 158.200 C 188.468 157.100,188.019 155.786,188.013 155.280 C 188.006 154.774,187.712 153.802,187.359 153.121 C 186.744 151.931,186.085 148.555,185.168 141.894 C 184.736 138.756,184.757 138.477,186.140 128.600 C 186.417 126.620,186.854 124.640,187.112 124.200 C 187.369 123.760,187.861 122.770,188.206 122.000 C 189.670 118.724,190.538 117.505,193.379 114.731 C 196.604 111.581,198.511 110.000,199.086 110.000 C 199.283 110.000,200.055 109.550,200.800 109.000 C 201.545 108.450,202.398 108.000,202.694 108.000 C 202.990 108.000,203.720 107.657,204.316 107.237 C 204.912 106.818,206.101 106.355,206.958 106.208 C 207.816 106.062,208.908 105.686,209.386 105.373 C 210.304 104.771,217.641 104.017,222.686 104.006 C 226.584 103.998,226.400 104.660,226.400 90.640 C 226.400 79.371,226.364 78.809,225.626 78.414 C 224.582 77.855,213.675 77.972,208.400 78.598 M259.900 78.432 C 259.005 78.953,258.786 321.026,259.680 321.920 C 260.565 322.805,322.875 322.592,323.974 321.700 C 324.878 320.966,325.153 297.018,324.267 296.133 C 324.084 295.950,315.274 295.748,304.690 295.685 C 291.602 295.607,285.279 295.431,284.923 295.136 C 284.138 294.485,284.151 212.305,284.936 211.653 C 285.307 211.345,290.984 211.176,303.436 211.104 L 321.400 211.000 321.505 197.427 C 321.588 186.834,321.500 183.783,321.105 183.533 C 320.827 183.357,312.671 183.209,302.980 183.206 C 289.816 183.202,285.239 183.079,284.880 182.720 C 284.275 182.115,284.188 105.755,284.791 104.800 C 285.117 104.285,287.908 104.172,304.552 104.000 C 315.212 103.890,324.084 103.650,324.267 103.467 C 324.450 103.284,324.652 97.658,324.717 90.964 L 324.833 78.793 323.791 78.396 C 322.342 77.846,260.848 77.880,259.900 78.432 M398.662 398.731 C 397.757 399.732,397.829 400.000,399.000 400.000 C 399.800 400.000,400.000 399.800,400.000 399.000 C 400.000 397.815,399.570 397.728,398.662 398.731 " stroke="none" fill="#fbeced" fill-rule="evenodd"></path><path id="path1" d="M2.185 2.500 C 2.081 2.775,2.041 91.830,2.098 200.400 L 2.200 397.800 200.000 397.800 L 397.800 397.800 397.800 200.000 L 397.800 2.200 200.088 2.100 C 42.127 2.019,2.337 2.100,2.185 2.500 M397.600 200.000 L 397.600 397.600 200.000 397.600 L 2.400 397.600 2.400 200.000 L 2.400 2.400 200.000 2.400 L 397.600 2.400 397.600 200.000 M4.080 4.080 C 3.380 4.780,3.380 395.220,4.080 395.920 C 4.780 396.620,395.220 396.620,395.920 395.920 C 396.620 395.220,396.620 4.780,395.920 4.080 C 395.220 3.380,4.780 3.380,4.080 4.080 M101.200 75.200 C 101.594 75.455,97.410 75.588,89.000 75.588 C 80.590 75.588,76.406 75.455,76.800 75.200 C 77.152 74.972,82.190 74.812,89.000 74.812 C 95.810 74.812,100.848 74.972,101.200 75.200 M226.200 75.200 C 226.362 75.461,223.772 75.598,218.724 75.594 C 213.589 75.590,211.201 75.458,211.600 75.200 C 212.407 74.678,225.878 74.678,226.200 75.200 M323.600 75.200 C 323.990 75.452,312.793 75.588,291.600 75.588 C 270.407 75.588,259.210 75.452,259.600 75.200 C 259.974 74.958,272.007 74.812,291.600 74.812 C 311.193 74.812,323.226 74.958,323.600 75.200 M102.400 76.792 C 102.930 77.127,103.023 89.831,103.200 185.885 L 103.400 294.600 122.515 294.800 C 138.922 294.972,141.683 295.085,142.009 295.600 C 142.413 296.241,142.553 320.788,142.161 322.251 C 141.695 323.987,141.444 324.000,108.363 324.000 L 76.764 324.000 75.782 323.018 L 74.800 322.036 74.800 200.392 C 74.800 77.134,74.795 77.618,76.160 76.706 C 76.820 76.266,101.696 76.347,102.400 76.792 M207.700 77.100 C 207.562 77.792,209.034 77.727,210.157 76.992 C 210.926 76.488,212.481 76.402,219.218 76.492 L 227.350 76.600 227.691 77.918 C 228.122 79.581,227.916 104.218,227.468 104.667 C 227.285 104.850,224.045 105.098,220.268 105.219 L 213.400 105.437 220.386 105.519 C 226.504 105.590,227.299 105.672,226.786 106.183 C 225.876 107.087,214.036 107.137,213.380 106.240 C 212.795 105.440,212.241 105.428,211.600 106.200 C 211.326 106.530,210.483 106.800,209.727 106.800 C 208.913 106.800,208.454 106.963,208.600 107.200 C 208.736 107.420,209.233 107.600,209.704 107.600 C 211.066 107.600,209.962 108.391,208.202 108.677 C 206.784 108.907,206.690 108.863,206.900 108.063 C 207.179 106.996,206.998 106.986,205.709 108.000 C 205.150 108.440,204.273 108.800,203.762 108.800 C 203.250 108.800,202.509 109.135,202.116 109.544 C 201.722 109.953,200.905 110.406,200.300 110.551 C 199.695 110.696,199.200 110.987,199.200 111.197 C 199.200 111.408,198.615 111.881,197.900 112.249 C 197.185 112.618,196.365 113.252,196.077 113.660 C 195.790 114.067,195.295 114.400,194.977 114.400 C 194.660 114.400,194.400 114.676,194.400 115.013 C 194.400 115.349,194.138 115.726,193.818 115.848 C 193.499 115.971,192.879 116.640,192.441 117.336 C 192.004 118.031,191.095 119.373,190.421 120.317 C 189.748 121.261,189.034 122.759,188.834 123.645 C 188.635 124.532,188.186 125.574,187.836 125.960 C 187.486 126.347,187.225 127.099,187.254 127.631 L 187.309 128.600 187.485 127.677 C 187.582 127.169,187.873 126.824,188.131 126.910 C 188.693 127.098,188.814 148.744,188.255 149.089 C 188.066 149.207,187.753 149.054,187.561 148.751 C 187.300 148.339,187.211 148.420,187.206 149.071 C 187.203 149.551,187.491 150.233,187.846 150.588 C 188.208 150.951,188.617 152.301,188.778 153.663 C 188.970 155.296,189.283 156.215,189.732 156.466 C 190.099 156.672,190.400 157.269,190.400 157.794 C 190.400 159.023,191.040 160.697,191.802 161.459 C 192.131 161.788,192.400 162.586,192.400 163.232 C 192.400 163.913,192.737 164.696,193.200 165.093 C 193.640 165.470,194.000 166.252,194.000 166.830 C 194.000 167.409,194.450 168.369,195.000 168.962 C 195.550 169.556,196.000 170.454,196.000 170.959 C 196.000 171.463,196.360 172.202,196.800 172.600 C 197.240 172.998,197.600 173.720,197.600 174.204 C 197.600 174.687,198.050 175.569,198.600 176.162 C 199.150 176.756,199.600 177.564,199.600 177.959 C 199.600 178.353,199.950 178.993,200.377 179.379 C 200.805 179.766,201.272 180.616,201.415 181.269 C 201.558 181.921,201.917 182.547,202.213 182.660 C 202.509 182.774,202.864 183.379,203.001 184.006 C 203.139 184.632,203.501 185.352,203.805 185.604 C 204.110 185.857,204.557 186.664,204.799 187.397 C 205.041 188.130,205.500 188.830,205.819 188.952 C 206.139 189.075,206.414 189.586,206.432 190.087 C 206.460 190.899,206.510 190.872,206.885 189.839 L 207.307 188.679 207.839 189.639 C 208.577 190.970,208.531 191.200,207.525 191.200 L 206.649 191.200 207.520 192.011 C 207.999 192.457,208.499 193.254,208.631 193.782 C 208.764 194.310,209.126 194.839,209.436 194.959 C 209.746 195.078,210.000 195.509,210.000 195.918 C 210.000 196.326,210.450 197.083,211.000 197.600 C 211.550 198.117,212.000 198.809,212.000 199.138 C 212.000 199.468,212.287 200.054,212.637 200.441 C 213.307 201.182,214.335 202.925,215.384 205.100 C 215.729 205.815,216.183 206.400,216.394 206.400 C 216.605 206.400,216.946 206.985,217.152 207.700 L 217.528 209.000 217.577 207.600 C 217.623 206.280,217.659 206.244,218.213 206.976 C 218.973 207.982,218.967 209.200,218.200 209.200 C 217.733 209.200,217.778 209.378,218.400 210.000 C 218.840 210.440,219.200 211.207,219.200 211.704 C 219.200 212.201,219.538 212.818,219.950 213.076 C 220.363 213.334,220.818 214.170,220.961 214.934 C 221.104 215.698,221.477 216.421,221.789 216.540 C 222.101 216.660,222.474 217.386,222.618 218.153 C 222.761 218.920,223.221 219.857,223.640 220.236 C 224.058 220.614,224.400 221.408,224.400 222.000 C 224.400 222.592,224.750 223.393,225.178 223.780 C 225.606 224.167,226.027 225.050,226.114 225.742 C 226.263 226.929,226.276 226.916,226.336 225.500 C 226.411 223.750,227.044 223.539,227.626 225.069 C 228.109 226.338,227.861 227.200,227.013 227.200 C 226.232 227.200,226.230 227.588,227.008 228.157 C 227.343 228.401,227.766 229.548,227.949 230.704 C 228.132 231.860,228.566 233.121,228.915 233.506 C 229.263 233.891,229.617 235.104,229.702 236.203 L 229.856 238.200 229.928 236.051 C 229.988 234.265,230.094 233.980,230.556 234.364 C 231.664 235.283,231.665 238.400,230.557 238.400 C 229.820 238.400,229.849 239.171,230.620 240.022 C 231.062 240.510,231.335 242.122,231.575 245.653 C 231.759 248.374,232.110 251.107,232.355 251.726 C 232.933 253.190,232.932 262.415,232.353 263.874 C 232.108 264.493,231.759 267.313,231.578 270.141 C 231.340 273.881,231.080 275.470,230.625 275.972 C 229.777 276.910,229.840 277.465,230.824 277.722 C 231.709 277.954,231.640 279.718,230.657 282.000 C 230.274 282.889,230.199 282.711,229.982 280.400 C 229.741 277.830,229.737 277.823,229.669 279.838 C 229.619 281.307,229.377 282.078,228.800 282.600 C 228.274 283.076,228.000 283.832,228.000 284.808 C 228.000 285.704,227.671 286.710,227.171 287.346 C 226.508 288.189,226.463 288.400,226.947 288.400 C 227.903 288.400,228.085 289.087,227.449 290.291 C 226.847 291.427,226.693 291.310,226.270 289.400 C 226.132 288.779,226.082 288.832,226.046 289.638 C 226.021 290.209,225.640 291.002,225.200 291.400 C 224.760 291.798,224.400 292.520,224.400 293.004 C 224.400 293.487,223.950 294.369,223.400 294.962 C 222.850 295.556,222.400 296.262,222.400 296.532 C 222.400 296.801,222.040 297.330,221.600 297.707 C 221.160 298.084,220.800 298.622,220.800 298.903 C 220.800 299.184,219.990 300.259,219.000 301.292 C 218.010 302.326,217.200 303.282,217.200 303.418 C 217.200 303.740,211.340 309.600,211.018 309.600 C 210.882 309.600,209.922 310.416,208.885 311.414 C 207.848 312.411,206.595 313.331,206.100 313.457 C 205.605 313.583,205.200 313.845,205.200 314.038 C 205.200 314.231,204.615 314.634,203.900 314.933 C 203.185 315.232,202.353 315.774,202.051 316.138 C 201.749 316.502,201.102 316.800,200.613 316.800 C 200.124 316.800,199.418 317.138,199.045 317.550 C 198.671 317.963,197.741 318.402,196.977 318.526 C 196.213 318.650,195.116 319.123,194.540 319.576 C 193.907 320.074,192.901 320.400,192.000 320.400 C 191.129 320.400,190.097 320.723,189.522 321.175 C 188.950 321.626,187.712 322.015,186.568 322.103 L 184.600 322.256 186.700 322.328 C 190.331 322.453,189.150 323.600,185.391 323.600 C 183.348 323.600,182.224 323.099,183.298 322.666 C 183.574 322.554,183.299 322.449,182.686 322.432 C 182.073 322.414,181.165 322.667,180.668 322.992 C 179.310 323.882,164.144 324.067,163.593 323.200 C 162.981 322.236,163.082 295.796,163.700 295.283 C 163.991 295.042,167.230 294.812,171.430 294.734 C 177.668 294.618,178.755 294.504,179.358 293.900 C 179.743 293.515,180.494 293.200,181.029 293.200 C 182.504 293.200,182.190 292.405,180.700 292.367 L 179.400 292.335 180.773 291.736 C 181.892 291.249,182.336 291.229,183.173 291.630 L 184.200 292.122 183.200 292.421 L 182.200 292.720 183.211 292.760 C 183.767 292.782,184.530 292.440,184.907 292.000 C 185.284 291.560,186.037 291.200,186.581 291.200 C 187.124 291.200,187.891 290.862,188.284 290.450 C 188.678 290.037,189.423 289.569,189.939 289.410 C 191.098 289.054,191.397 288.810,195.500 284.877 C 197.315 283.137,198.800 281.413,198.800 281.044 C 198.800 280.676,199.068 280.272,199.396 280.146 C 199.724 280.020,200.208 279.197,200.472 278.317 C 200.736 277.437,201.187 276.626,201.476 276.516 C 202.266 276.212,202.105 275.321,201.218 275.089 C 200.371 274.867,200.428 272.943,201.346 270.800 C 201.725 269.913,201.801 270.094,202.018 272.400 L 202.262 275.000 202.333 272.600 C 202.376 271.184,202.687 269.708,203.092 269.000 C 204.022 267.378,204.137 255.330,203.233 254.241 C 202.905 253.845,202.554 252.136,202.399 250.182 C 202.221 247.946,201.913 246.566,201.484 246.093 C 201.129 245.700,200.712 244.574,200.559 243.590 C 200.405 242.605,199.946 241.371,199.540 240.846 C 199.133 240.321,198.800 239.285,198.800 238.542 C 198.800 237.687,198.507 236.941,198.000 236.507 C 197.560 236.130,197.192 235.457,197.182 235.011 C 197.168 234.384,197.047 234.473,196.651 235.400 C 196.144 236.586,196.133 236.590,195.669 235.726 C 194.957 234.401,195.093 233.600,196.029 233.600 L 196.858 233.600 196.029 232.546 C 195.573 231.966,195.200 231.094,195.200 230.608 C 195.200 230.122,194.840 229.398,194.400 229.000 C 193.960 228.602,193.600 227.868,193.600 227.369 C 193.600 226.870,193.150 225.927,192.600 225.273 C 192.050 224.619,191.600 223.808,191.600 223.471 C 191.600 223.133,191.313 222.571,190.963 222.220 C 190.613 221.870,190.178 221.092,189.998 220.492 L 189.669 219.400 189.634 220.500 C 189.594 221.780,189.008 221.936,188.414 220.826 C 187.785 219.650,187.912 219.200,188.875 219.200 L 189.751 219.200 188.875 218.384 C 188.394 217.936,188.000 217.132,188.000 216.598 C 188.000 216.057,187.667 215.450,187.246 215.225 C 186.831 215.003,186.370 214.336,186.221 213.742 C 186.072 213.149,185.602 212.220,185.175 211.678 C 184.749 211.136,184.400 210.474,184.400 210.208 C 184.400 209.942,184.040 209.398,183.600 209.000 C 183.160 208.602,182.800 207.970,182.800 207.596 C 182.800 207.223,182.350 206.431,181.800 205.838 C 181.250 205.244,180.800 204.417,180.800 203.999 C 180.800 203.582,180.554 203.096,180.254 202.920 C 179.954 202.744,179.369 201.991,178.954 201.248 C 177.208 198.117,177.335 198.248,177.046 199.278 C 176.793 200.179,176.774 200.183,176.193 199.424 C 175.378 198.356,175.449 198.000,176.475 198.000 L 177.351 198.000 176.475 197.184 C 175.994 196.736,175.600 196.038,175.600 195.633 C 175.600 195.229,175.315 194.662,174.967 194.373 C 174.366 193.874,173.558 192.510,172.239 189.768 C 171.913 189.091,171.366 188.304,171.023 188.019 C 170.680 187.735,170.400 187.100,170.400 186.609 C 170.400 186.118,169.950 185.231,169.400 184.638 C 168.850 184.044,168.400 183.124,168.400 182.593 C 168.400 182.038,168.061 181.447,167.600 181.200 C 167.075 180.919,166.800 180.362,166.800 179.582 C 166.800 178.887,166.467 178.107,166.000 177.707 C 165.560 177.330,165.200 176.792,165.200 176.511 C 165.200 175.721,164.402 175.907,164.387 176.700 C 164.376 177.333,164.319 177.326,163.787 176.624 C 162.931 175.492,163.035 174.663,164.000 174.916 C 164.440 175.031,164.800 175.035,164.800 174.926 C 164.800 174.816,164.440 174.269,164.000 173.709 C 163.560 173.150,163.200 172.111,163.200 171.400 C 163.200 170.689,162.840 169.650,162.400 169.091 C 161.960 168.531,161.586 167.652,161.570 167.137 C 161.545 166.366,161.447 166.448,161.020 167.600 L 160.501 169.000 160.125 167.600 C 159.716 166.076,159.884 164.400,160.447 164.400 C 160.641 164.400,160.821 164.715,160.846 165.100 C 160.889 165.735,160.910 165.733,161.081 165.070 C 161.185 164.669,160.974 164.013,160.612 163.614 C 160.194 163.151,159.836 161.708,159.628 159.645 C 159.448 157.862,159.053 156.106,158.750 155.743 C 158.398 155.320,158.118 153.556,157.973 150.841 L 157.747 146.600 157.673 150.476 C 157.598 154.458,157.100 155.811,156.560 153.503 C 156.075 151.434,156.209 130.671,156.713 129.772 C 157.353 128.631,157.565 129.527,157.710 134.000 L 157.834 137.800 157.917 133.389 C 157.981 130.010,158.157 128.754,158.670 128.021 C 159.093 127.418,159.439 125.831,159.605 123.736 C 159.783 121.492,160.086 120.168,160.535 119.672 C 161.360 118.760,161.387 118.353,160.603 118.654 C 159.796 118.964,159.439 117.883,159.896 116.513 C 160.333 115.200,160.896 115.185,161.260 116.476 C 161.513 117.375,161.521 117.372,161.560 116.361 C 161.582 115.790,161.960 114.907,162.400 114.400 C 162.840 113.893,163.200 112.972,163.200 112.354 C 163.200 111.737,163.539 110.909,163.953 110.516 C 164.368 110.122,164.828 109.234,164.976 108.541 C 165.124 107.849,165.595 106.966,166.023 106.579 C 166.450 106.193,166.800 105.570,166.800 105.196 C 166.800 104.823,167.250 104.031,167.800 103.438 C 168.350 102.844,168.800 102.141,168.800 101.876 C 168.800 101.610,169.160 101.168,169.600 100.893 C 170.040 100.618,170.400 100.189,170.400 99.940 C 170.400 98.565,180.505 88.400,181.872 88.400 C 182.147 88.400,182.565 88.040,182.800 87.600 C 183.035 87.160,183.421 86.800,183.656 86.800 C 183.892 86.800,184.619 86.350,185.273 85.800 C 185.927 85.250,186.801 84.800,187.217 84.800 C 187.632 84.800,188.165 84.440,188.400 84.000 C 188.640 83.551,189.238 83.200,189.760 83.200 C 190.273 83.200,191.150 82.840,191.709 82.400 C 192.269 81.960,192.968 81.589,193.263 81.575 C 193.558 81.561,193.383 81.382,192.874 81.178 C 191.707 80.710,192.030 80.145,193.595 79.915 C 194.560 79.774,194.800 79.884,194.800 80.469 C 194.800 81.364,195.162 81.405,195.767 80.578 C 196.028 80.221,197.216 79.820,198.549 79.639 C 199.829 79.466,201.031 79.074,201.220 78.768 C 201.414 78.454,202.571 78.105,203.882 77.965 L 206.200 77.718 204.300 77.659 C 202.510 77.603,202.030 77.303,202.684 76.650 C 203.197 76.137,207.810 76.551,207.700 77.100 M325.120 76.880 C 325.474 77.234,325.600 80.880,325.600 90.800 C 325.600 100.720,325.474 104.366,325.120 104.720 C 324.760 105.080,319.873 105.202,305.620 105.206 C 295.159 105.209,286.420 105.344,286.200 105.506 C 285.520 106.005,286.060 180.908,286.749 181.739 C 287.244 182.335,289.003 182.400,304.717 182.400 C 320.365 182.400,322.211 182.467,322.869 183.062 C 323.938 184.030,324.002 210.093,322.938 211.269 C 322.316 211.956,321.207 212.000,304.438 212.006 C 294.627 212.009,286.420 212.144,286.200 212.306 C 285.938 212.499,285.800 226.696,285.800 253.500 C 285.800 275.995,285.800 294.441,285.800 294.491 C 285.800 294.540,294.710 294.675,305.600 294.791 L 325.400 295.000 325.505 309.108 L 325.610 323.216 324.555 323.617 C 322.659 324.338,258.456 323.936,257.991 323.200 C 257.253 322.031,257.488 77.769,258.229 77.029 C 259.057 76.200,324.295 76.055,325.120 76.880 M104.800 185.144 C 104.800 267.907,104.909 292.349,105.280 292.720 C 105.639 293.079,110.131 293.200,123.031 293.200 C 137.895 293.200,140.371 293.284,140.800 293.800 C 141.241 294.332,139.153 294.400,122.402 294.400 L 103.507 294.400 103.748 293.500 C 103.881 293.005,103.992 244.214,103.995 185.076 C 103.998 113.497,104.134 77.635,104.400 77.800 C 104.665 77.964,104.800 114.177,104.800 185.144 M229.516 91.279 C 229.429 100.442,229.273 103.688,228.900 104.061 C 228.500 104.460,228.403 101.844,228.413 90.980 C 228.424 78.788,228.487 77.482,229.029 78.198 C 229.542 78.878,229.615 80.826,229.516 91.279 M257.166 199.800 C 257.188 315.331,257.136 323.172,256.351 321.934 C 255.953 321.306,255.873 79.198,256.270 78.162 C 257.056 76.114,257.146 88.274,257.166 199.800 M327.004 78.500 C 327.482 80.461,327.019 104.527,326.500 104.700 C 326.107 104.831,326.000 101.962,326.000 91.233 C 326.000 78.666,326.255 75.429,327.004 78.500 M200.145 78.600 C 200.333 79.091,199.960 79.198,198.087 79.187 C 195.989 79.176,195.864 79.126,196.576 78.587 C 197.600 77.813,199.846 77.821,200.145 78.600 M190.167 81.843 C 191.212 82.244,190.882 82.800,189.600 82.800 C 188.453 82.800,188.093 82.440,188.667 81.867 C 188.997 81.536,189.354 81.531,190.167 81.843 M187.600 84.000 C 187.600 84.220,187.049 84.400,186.376 84.400 C 185.663 84.400,185.256 84.233,185.400 84.000 C 185.536 83.780,186.087 83.600,186.624 83.600 C 187.161 83.600,187.600 83.780,187.600 84.000 M184.400 85.824 C 184.400 86.181,183.996 86.400,183.338 86.400 C 182.306 86.400,182.296 86.378,182.991 85.609 C 183.751 84.770,184.400 84.869,184.400 85.824 M178.800 89.400 C 178.800 89.730,178.536 90.000,178.213 90.000 C 177.855 90.000,177.715 89.765,177.855 89.400 C 177.982 89.070,178.246 88.800,178.443 88.800 C 178.639 88.800,178.800 89.070,178.800 89.400 M177.200 91.000 C 177.200 91.330,176.930 91.600,176.600 91.600 C 175.975 91.600,175.806 91.127,176.267 90.667 C 176.727 90.206,177.200 90.375,177.200 91.000 M175.200 93.000 C 175.200 93.330,174.930 93.600,174.600 93.600 C 173.975 93.600,173.806 93.127,174.267 92.667 C 174.727 92.206,175.200 92.375,175.200 93.000 M173.600 94.600 C 173.600 94.930,173.330 95.200,173.000 95.200 C 172.375 95.200,172.206 94.727,172.667 94.267 C 173.127 93.806,173.600 93.975,173.600 94.600 M170.000 99.600 C 170.000 100.044,169.733 100.400,169.400 100.400 C 168.677 100.400,168.627 99.933,169.280 99.280 C 169.926 98.634,170.000 98.668,170.000 99.600 M168.140 101.787 C 168.264 102.110,168.229 102.458,168.063 102.561 C 167.565 102.869,166.677 102.123,166.972 101.645 C 167.354 101.026,167.872 101.090,168.140 101.787 M166.400 105.000 C 166.400 105.622,166.173 106.000,165.800 106.000 C 165.080 106.000,165.013 105.147,165.680 104.480 C 166.342 103.818,166.400 103.860,166.400 105.000 M325.200 106.013 C 325.200 106.749,324.441 106.783,305.500 106.892 C 287.916 106.994,286.800 106.958,286.800 106.300 C 286.800 105.643,287.981 105.600,306.000 105.600 C 318.923 105.600,325.200 105.735,325.200 106.013 M164.523 108.500 C 164.404 109.105,164.158 109.600,163.977 109.600 C 163.345 109.600,163.197 108.859,163.612 107.768 C 164.130 106.406,164.824 106.964,164.523 108.500 M204.800 109.800 C 204.526 110.130,204.054 110.400,203.751 110.400 C 203.448 110.400,203.200 110.130,203.200 109.800 C 203.200 109.419,203.583 109.200,204.249 109.200 C 205.136 109.200,205.221 109.293,204.800 109.800 M162.800 111.987 C 162.800 113.234,162.671 113.525,162.200 113.345 C 161.500 113.076,161.430 112.265,162.014 111.174 C 162.624 110.034,162.800 110.216,162.800 111.987 M201.372 111.155 C 201.736 111.743,200.437 112.597,199.938 112.098 C 199.702 111.862,199.631 111.474,199.778 111.235 C 200.102 110.711,201.068 110.662,201.372 111.155 M199.200 112.951 C 199.200 113.034,198.930 113.326,198.600 113.600 C 198.109 114.008,198.000 113.980,198.000 113.449 C 198.000 113.092,198.270 112.800,198.600 112.800 C 198.930 112.800,199.200 112.868,199.200 112.951 M192.106 119.839 C 192.495 120.228,191.961 121.200,191.357 121.200 C 191.051 121.200,190.800 120.960,190.800 120.667 C 190.800 119.781,191.564 119.297,192.106 119.839 M159.200 123.233 C 159.200 125.321,159.068 126.023,158.700 125.902 C 157.707 125.575,158.002 120.400,159.014 120.400 C 159.116 120.400,159.200 121.675,159.200 123.233 M190.267 123.431 C 190.400 123.778,190.215 124.357,189.855 124.717 C 189.248 125.323,189.200 125.276,189.200 124.086 C 189.200 122.742,189.850 122.344,190.267 123.431 M186.800 138.553 C 186.800 142.403,186.948 145.644,187.128 145.755 C 187.308 145.867,187.499 142.835,187.553 139.018 C 187.617 134.448,187.505 131.989,187.225 131.816 C 186.931 131.634,186.800 133.712,186.800 138.553 M157.750 142.200 C 157.751 144.620,157.816 145.558,157.896 144.285 C 157.976 143.012,157.975 141.032,157.894 139.885 C 157.814 138.738,157.749 139.780,157.750 142.200 M190.318 153.969 C 190.104 156.449,189.199 155.928,189.213 153.333 C 189.225 151.163,189.268 151.056,189.831 151.800 C 190.173 152.252,190.384 153.195,190.318 153.969 M192.036 159.324 C 191.318 160.042,190.654 159.035,190.984 157.729 L 191.269 156.600 191.870 157.744 C 192.304 158.570,192.350 159.010,192.036 159.324 M159.200 160.480 C 159.200 162.467,159.072 163.232,158.785 162.945 C 158.213 162.373,157.849 159.857,158.159 158.622 C 158.655 156.644,159.200 157.616,159.200 160.480 M193.730 162.161 C 194.006 162.881,193.615 164.400,193.153 164.400 C 192.959 164.400,192.800 163.770,192.800 163.000 C 192.800 161.593,193.329 161.116,193.730 162.161 M195.625 166.665 C 196.058 167.806,195.606 168.698,194.835 168.222 C 194.283 167.880,194.261 165.600,194.810 165.600 C 195.035 165.600,195.402 166.079,195.625 166.665 M197.600 170.876 C 197.600 171.274,197.330 171.600,197.000 171.600 C 196.571 171.600,196.404 171.172,196.413 170.100 C 196.425 168.694,196.462 168.649,197.013 169.376 C 197.336 169.804,197.600 170.479,197.600 170.876 M162.800 171.686 C 162.800 173.244,162.751 173.322,162.148 172.720 C 161.707 172.279,161.580 171.733,161.756 171.034 C 162.161 169.420,162.800 169.819,162.800 171.686 M199.200 174.249 C 199.200 174.828,198.965 175.200,198.600 175.200 C 198.177 175.200,198.000 174.772,198.000 173.751 C 198.000 172.508,198.085 172.373,198.600 172.800 C 198.930 173.074,199.200 173.726,199.200 174.249 M200.800 177.624 C 200.800 178.271,200.620 178.800,200.400 178.800 C 200.180 178.800,200.000 178.159,200.000 177.376 C 200.000 176.529,200.162 176.053,200.400 176.200 C 200.620 176.336,200.800 176.977,200.800 177.624 M166.400 179.833 C 166.400 181.641,165.456 181.503,165.275 179.669 C 165.182 178.731,165.313 178.400,165.775 178.400 C 166.225 178.400,166.400 178.800,166.400 179.833 M287.746 180.487 C 287.402 181.043,286.821 180.410,287.073 179.754 C 287.259 179.269,287.381 179.246,287.629 179.647 C 287.804 179.930,287.857 180.308,287.746 180.487 M202.600 180.400 C 202.600 180.693,202.375 181.008,202.100 181.100 C 201.803 181.199,201.600 180.916,201.600 180.400 C 201.600 179.884,201.803 179.601,202.100 179.700 C 202.375 179.792,202.600 180.107,202.600 180.400 M167.987 183.500 C 167.975 184.906,167.938 184.951,167.387 184.224 C 166.627 183.218,166.633 182.000,167.400 182.000 C 167.829 182.000,167.996 182.428,167.987 183.500 M204.452 184.108 C 203.918 184.642,203.187 184.101,203.464 183.377 C 203.644 182.908,203.816 182.881,204.264 183.253 C 204.626 183.554,204.695 183.865,204.452 184.108 M170.000 186.800 C 170.000 187.460,169.838 188.000,169.639 188.000 C 169.441 188.000,169.090 187.460,168.860 186.800 C 168.488 185.734,168.529 185.600,169.221 185.600 C 169.820 185.600,170.000 185.877,170.000 186.800 M206.328 187.131 C 206.413 187.708,206.245 188.000,205.828 188.000 C 205.419 188.000,205.200 187.639,205.200 186.967 C 205.200 185.714,206.139 185.851,206.328 187.131 M171.600 189.800 C 171.600 190.935,171.014 191.136,170.629 190.132 C 170.488 189.764,170.603 189.318,170.886 189.138 C 171.601 188.685,171.600 188.683,171.600 189.800 M209.745 192.600 C 209.885 192.965,209.745 193.200,209.387 193.200 C 209.064 193.200,208.800 192.930,208.800 192.600 C 208.800 192.270,208.961 192.000,209.157 192.000 C 209.354 192.000,209.618 192.270,209.745 192.600 M173.538 193.379 C 173.627 193.835,173.482 194.028,173.138 193.913 C 172.842 193.814,172.538 193.413,172.462 193.021 C 172.373 192.565,172.518 192.372,172.862 192.487 C 173.158 192.586,173.462 192.987,173.538 193.379 M175.200 196.200 C 175.200 196.750,175.020 197.200,174.800 197.200 C 174.353 197.200,174.252 195.882,174.667 195.467 C 175.108 195.026,175.200 195.153,175.200 196.200 M211.600 195.367 C 211.600 195.459,211.709 195.819,211.843 196.167 C 212.017 196.621,211.847 196.800,211.243 196.800 C 210.667 196.800,210.400 196.547,210.400 196.000 C 210.400 195.556,210.667 195.200,211.000 195.200 C 211.330 195.200,211.600 195.275,211.600 195.367 M213.200 199.024 C 213.200 199.561,213.020 200.000,212.800 200.000 C 212.580 200.000,212.400 199.449,212.400 198.776 C 212.400 198.063,212.567 197.656,212.800 197.800 C 213.020 197.936,213.200 198.487,213.200 199.024 M214.959 201.036 C 215.252 201.800,214.892 202.504,214.372 202.183 C 213.896 201.889,213.884 200.400,214.357 200.400 C 214.554 200.400,214.824 200.686,214.959 201.036 M178.800 202.286 C 178.800 203.320,178.767 203.338,178.100 202.671 C 177.488 202.059,177.475 201.923,178.000 201.592 C 178.816 201.075,178.800 201.061,178.800 202.286 M180.386 204.900 L 180.372 206.200 179.800 205.200 C 179.064 203.912,179.064 203.600,179.800 203.600 C 180.213 203.600,180.396 204.005,180.386 204.900 M217.200 205.276 C 217.200 205.454,216.930 205.600,216.600 205.600 C 216.209 205.600,216.004 205.217,216.013 204.500 C 216.025 203.446,216.050 203.433,216.613 204.176 C 216.936 204.604,217.200 205.099,217.200 205.276 M182.400 207.833 C 182.400 209.086,181.461 208.949,181.272 207.669 C 181.187 207.092,181.355 206.800,181.772 206.800 C 182.181 206.800,182.400 207.161,182.400 207.833 M220.400 210.800 C 220.400 211.214,220.240 211.651,220.045 211.772 C 219.636 212.025,219.249 210.840,219.499 210.098 C 219.739 209.385,220.400 209.900,220.400 210.800 M184.000 211.086 C 184.000 212.120,183.967 212.138,183.300 211.471 C 182.688 210.859,182.675 210.723,183.200 210.392 C 184.016 209.875,184.000 209.861,184.000 211.086 M321.769 212.791 C 321.531 213.029,314.950 213.233,304.989 213.312 C 295.975 213.384,288.247 213.523,287.815 213.621 C 287.297 213.739,286.982 213.562,286.886 213.100 C 286.750 212.442,287.796 212.400,304.451 212.400 C 315.989 212.400,322.024 212.536,321.769 212.791 M222.224 214.362 C 221.733 215.156,221.200 214.819,221.200 213.714 C 221.200 212.714,221.251 212.679,221.847 213.276 C 222.203 213.632,222.373 214.121,222.224 214.362 M186.000 214.400 C 186.000 214.840,185.831 215.200,185.624 215.200 C 185.087 215.200,184.708 214.472,185.000 214.000 C 185.418 213.324,186.000 213.556,186.000 214.400 M187.600 217.424 C 187.600 218.271,187.438 218.747,187.200 218.600 C 186.980 218.464,186.800 217.823,186.800 217.176 C 186.800 216.529,186.980 216.000,187.200 216.000 C 187.420 216.000,187.600 216.641,187.600 217.424 M224.001 218.159 C 223.411 218.749,222.632 217.813,222.975 216.927 C 223.244 216.234,223.284 216.236,223.830 216.979 C 224.213 217.499,224.270 217.890,224.001 218.159 M225.814 221.955 C 225.386 223.304,224.800 222.933,224.800 221.314 C 224.800 219.951,224.853 219.882,225.441 220.470 C 225.850 220.879,225.985 221.416,225.814 221.955 M191.200 223.849 C 191.200 224.736,191.107 224.821,190.600 224.400 C 190.270 224.126,190.000 223.654,190.000 223.351 C 190.000 223.048,190.270 222.800,190.600 222.800 C 190.981 222.800,191.200 223.183,191.200 223.849 M193.200 227.176 C 193.200 228.290,192.513 228.558,192.020 227.637 C 191.438 226.550,191.484 226.400,192.400 226.400 C 192.925 226.400,193.200 226.667,193.200 227.176 M229.517 231.169 C 229.286 233.087,228.399 232.577,228.413 230.533 C 228.425 228.722,228.463 228.650,229.030 229.400 C 229.362 229.839,229.581 230.636,229.517 231.169 M194.697 232.100 C 194.555 232.909,194.475 232.858,193.901 231.600 C 193.312 230.306,193.315 230.181,193.932 229.955 C 194.666 229.687,194.971 230.542,194.697 232.100 M198.387 239.100 C 198.376 240.858,198.331 240.942,197.787 240.224 C 197.003 239.186,197.011 237.200,197.800 237.200 C 198.251 237.200,198.397 237.672,198.387 239.100 M233.040 244.069 C 233.225 246.381,233.142 247.169,232.650 247.800 C 232.073 248.539,232.025 248.263,232.025 244.200 C 232.024 239.218,232.645 239.138,233.040 244.069 M200.000 243.824 C 200.000 245.834,199.418 245.904,198.988 243.945 C 198.753 242.874,199.139 242.053,199.900 242.006 C 199.955 242.003,200.000 242.821,200.000 243.824 M202.000 250.480 C 202.000 253.853,201.300 253.787,200.758 250.363 C 200.403 248.114,200.527 247.600,201.424 247.600 C 201.872 247.600,202.000 248.239,202.000 250.480 M234.394 257.524 C 234.391 258.336,234.213 259.270,234.000 259.600 C 233.725 260.025,233.610 259.524,233.606 257.876 C 233.602 256.428,233.751 255.646,234.000 255.800 C 234.220 255.936,234.397 256.712,234.394 257.524 M203.587 261.300 C 203.576 265.344,203.515 265.721,202.987 265.024 C 202.039 263.769,202.259 256.800,203.247 256.800 C 203.441 256.800,203.594 258.825,203.587 261.300 M233.100 271.419 C 232.797 276.456,232.024 276.442,232.025 271.400 C 232.025 267.343,232.074 267.062,232.647 267.800 C 233.119 268.407,233.229 269.281,233.100 271.419 M200.000 277.787 C 200.000 278.495,199.832 278.711,199.407 278.547 C 198.959 278.375,198.913 278.135,199.221 277.560 C 199.769 276.536,200.000 276.604,200.000 277.787 M198.400 281.000 C 198.400 281.622,198.173 282.000,197.800 282.000 C 197.080 282.000,197.013 281.147,197.680 280.480 C 198.342 279.818,198.400 279.860,198.400 281.000 M196.800 282.976 C 196.800 283.293,196.604 283.674,196.365 283.822 C 195.800 284.171,195.029 283.400,195.378 282.835 C 195.771 282.200,196.800 282.303,196.800 282.976 M229.600 285.200 C 229.600 285.586,229.330 286.126,229.000 286.400 C 228.483 286.829,228.400 286.664,228.400 285.200 C 228.400 283.736,228.483 283.571,229.000 284.000 C 229.330 284.274,229.600 284.814,229.600 285.200 M194.800 284.800 C 194.800 285.244,194.533 285.600,194.200 285.600 C 193.110 285.600,193.488 284.414,194.700 284.032 C 194.755 284.014,194.800 284.360,194.800 284.800 M193.200 286.600 C 193.200 286.933,192.844 287.200,192.400 287.200 C 191.603 287.200,191.360 286.774,191.867 286.267 C 192.354 285.779,193.200 285.991,193.200 286.600 M189.783 288.372 C 190.079 288.851,189.326 289.325,188.793 288.996 C 188.346 288.719,188.640 288.000,189.200 288.000 C 189.394 288.000,189.656 288.168,189.783 288.372 M187.600 290.200 C 187.600 290.641,187.150 290.797,185.900 290.787 C 184.318 290.775,184.254 290.734,184.976 290.187 C 185.998 289.414,187.600 289.422,187.600 290.200 M226.000 292.966 C 226.000 293.231,225.736 293.796,225.413 294.224 C 224.862 294.952,224.825 294.907,224.813 293.513 C 224.803 292.352,224.932 292.076,225.400 292.255 C 225.730 292.382,226.000 292.702,226.000 292.966 M324.700 293.395 C 327.019 294.228,323.784 294.400,305.837 294.400 C 287.594 294.400,286.485 294.360,286.658 293.700 C 286.832 293.034,322.889 292.746,324.700 293.395 M177.600 293.800 C 177.600 294.310,176.556 294.400,170.600 294.400 C 164.354 294.400,162.458 294.127,164.100 293.465 C 165.485 292.906,177.600 293.207,177.600 293.800 M162.800 309.249 C 162.800 321.692,162.731 323.241,162.200 322.800 C 161.582 322.287,161.252 297.373,161.843 295.833 C 162.610 293.832,162.800 296.489,162.800 309.249 M327.112 308.433 C 327.223 321.368,327.134 323.200,326.392 323.200 C 326.143 323.200,326.000 318.074,326.000 309.167 C 326.000 298.118,326.106 295.169,326.500 295.300 C 326.883 295.427,327.026 298.496,327.112 308.433 M224.106 295.839 C 224.495 296.228,223.961 297.200,223.357 297.200 C 223.051 297.200,222.800 296.960,222.800 296.667 C 222.800 295.781,223.564 295.297,224.106 295.839 M143.499 315.500 C 143.433 318.965,143.378 316.130,143.378 309.200 C 143.378 302.270,143.433 299.435,143.499 302.900 C 143.566 306.365,143.566 312.035,143.499 315.500 M222.000 299.824 C 222.000 300.141,221.820 300.400,221.600 300.400 C 221.380 300.400,221.200 300.029,221.200 299.576 C 221.200 299.123,221.380 298.864,221.600 299.000 C 221.820 299.136,222.000 299.507,222.000 299.824 M220.700 301.700 C 220.448 302.457,219.200 302.564,219.200 301.829 C 219.200 301.458,219.542 301.200,220.033 301.200 C 220.522 301.200,220.798 301.407,220.700 301.700 M218.600 303.600 C 218.600 303.893,218.375 304.208,218.100 304.300 C 217.803 304.399,217.600 304.116,217.600 303.600 C 217.600 303.084,217.803 302.801,218.100 302.900 C 218.375 302.992,218.600 303.307,218.600 303.600 M211.900 310.500 C 211.648 311.257,210.400 311.364,210.400 310.629 C 210.400 310.258,210.742 310.000,211.233 310.000 C 211.722 310.000,211.998 310.207,211.900 310.500 M210.000 312.419 C 210.000 312.603,209.800 312.876,209.555 313.028 C 209.077 313.323,208.331 312.435,208.639 311.937 C 208.871 311.562,210.000 311.963,210.000 312.419 M207.600 314.200 C 207.326 314.530,207.053 314.800,206.994 314.800 C 206.934 314.800,206.782 314.530,206.655 314.200 C 206.496 313.785,206.682 313.600,207.262 313.600 C 207.960 313.600,208.016 313.699,207.600 314.200 M204.692 315.876 C 204.839 316.317,203.632 316.965,203.293 316.627 C 203.188 316.521,203.214 316.142,203.351 315.784 C 203.614 315.098,204.452 315.155,204.692 315.876 M202.000 317.800 C 201.726 318.130,201.074 318.400,200.551 318.400 C 199.972 318.400,199.600 318.165,199.600 317.800 C 199.600 317.377,200.028 317.200,201.049 317.200 C 202.292 317.200,202.427 317.285,202.000 317.800 M198.311 319.137 C 198.680 319.371,198.523 319.598,197.751 319.950 C 197.065 320.262,196.540 320.300,196.294 320.054 C 195.402 319.162,197.120 318.381,198.311 319.137 M193.824 321.413 C 192.815 322.175,190.950 322.168,190.655 321.400 C 190.468 320.913,190.818 320.802,192.513 320.813 C 194.435 320.824,194.539 320.872,193.824 321.413 M140.600 324.800 C 140.439 325.061,129.270 325.200,108.400 325.200 C 87.530 325.200,76.361 325.061,76.200 324.800 C 76.036 324.535,86.870 324.400,108.400 324.400 C 129.930 324.400,140.764 324.535,140.600 324.800 M179.600 324.800 C 178.792 325.322,164.523 325.322,164.200 324.800 C 164.038 324.538,166.761 324.402,172.076 324.406 C 177.469 324.410,179.998 324.543,179.600 324.800 M325.000 324.800 C 324.667 325.339,260.035 325.339,259.200 324.800 C 258.810 324.548,270.261 324.410,291.924 324.406 C 314.039 324.402,325.164 324.535,325.000 324.800 " stroke="none" fill="#ec1c2c" fill-rule="evenodd"></path><path id="path2" d="M2.080 2.080 C 1.337 2.823,1.385 397.328,2.129 398.071 C 2.566 398.509,36.841 398.565,200.429 398.400 L 398.200 398.200 398.400 200.429 C 398.565 36.841,398.509 2.566,398.071 2.129 C 397.328 1.385,2.823 1.337,2.080 2.080 M397.800 200.000 L 397.800 397.800 200.000 397.800 L 2.200 397.800 2.098 200.400 C 2.041 91.830,2.081 2.775,2.185 2.500 C 2.337 2.100,42.127 2.019,200.088 2.100 L 397.800 2.200 397.800 200.000 M76.160 76.706 C 74.795 77.618,74.800 77.134,74.800 200.392 L 74.800 322.036 75.782 323.018 L 76.764 324.000 108.363 324.000 C 141.444 324.000,141.695 323.987,142.161 322.251 C 142.553 320.788,142.413 296.241,142.009 295.600 C 141.683 295.085,138.922 294.972,122.515 294.800 L 103.400 294.600 103.200 185.885 C 103.023 89.831,102.930 77.127,102.400 76.792 C 101.696 76.347,76.820 76.266,76.160 76.706 M210.185 76.956 C 209.720 77.281,207.775 77.651,205.660 77.817 C 203.160 78.012,201.748 78.309,201.331 78.727 C 200.990 79.067,199.701 79.483,198.467 79.651 C 197.232 79.818,196.037 80.205,195.811 80.510 C 195.585 80.815,194.800 81.184,194.068 81.329 C 193.335 81.474,192.275 81.955,191.714 82.396 C 191.152 82.838,190.273 83.200,189.760 83.200 C 189.238 83.200,188.640 83.551,188.400 84.000 C 188.165 84.440,187.632 84.800,187.217 84.800 C 186.801 84.800,185.927 85.250,185.273 85.800 C 184.619 86.350,183.892 86.800,183.656 86.800 C 183.421 86.800,183.035 87.160,182.800 87.600 C 182.565 88.040,182.147 88.400,181.872 88.400 C 180.505 88.400,170.400 98.565,170.400 99.940 C 170.400 100.189,170.040 100.618,169.600 100.893 C 169.160 101.168,168.800 101.610,168.800 101.876 C 168.800 102.141,168.350 102.844,167.800 103.438 C 167.250 104.031,166.800 104.823,166.800 105.196 C 166.800 105.570,166.450 106.193,166.023 106.579 C 165.595 106.966,165.124 107.849,164.976 108.541 C 164.828 109.234,164.368 110.122,163.953 110.516 C 163.539 110.909,163.200 111.737,163.200 112.354 C 163.200 112.972,162.860 113.870,162.444 114.349 C 162.028 114.829,161.562 116.072,161.408 117.111 C 161.255 118.150,160.846 119.317,160.499 119.704 C 160.094 120.157,159.776 121.582,159.607 123.707 C 159.444 125.758,159.087 127.401,158.662 128.049 C 157.636 129.616,157.621 153.961,158.645 155.525 C 159.024 156.103,159.455 157.927,159.635 159.717 C 159.811 161.464,160.212 163.182,160.528 163.543 C 160.844 163.905,161.231 165.093,161.388 166.184 C 161.546 167.275,162.018 168.605,162.437 169.138 C 162.857 169.671,163.200 170.689,163.200 171.400 C 163.200 172.111,163.533 173.121,163.939 173.646 C 164.345 174.171,164.810 175.140,164.971 175.800 C 165.133 176.460,165.610 177.322,166.032 177.716 C 166.455 178.109,166.800 178.958,166.800 179.602 C 166.800 180.362,167.080 180.922,167.600 181.200 C 168.061 181.447,168.400 182.038,168.400 182.593 C 168.400 183.124,168.850 184.044,169.400 184.638 C 169.950 185.231,170.400 186.118,170.400 186.609 C 170.400 187.100,170.680 187.735,171.023 188.019 C 171.366 188.304,171.913 189.091,172.239 189.768 C 173.558 192.510,174.366 193.874,174.967 194.373 C 175.315 194.662,175.600 195.210,175.600 195.591 C 175.600 195.972,176.050 196.769,176.600 197.362 C 177.150 197.956,177.600 198.604,177.600 198.803 C 177.600 199.241,179.343 201.954,180.190 202.834 C 180.526 203.182,180.800 203.758,180.800 204.113 C 180.800 204.468,181.250 205.244,181.800 205.838 C 182.350 206.431,182.800 207.223,182.800 207.596 C 182.800 207.970,183.160 208.602,183.600 209.000 C 184.040 209.398,184.400 209.942,184.400 210.208 C 184.400 210.474,184.749 211.136,185.175 211.678 C 185.602 212.220,186.072 213.149,186.221 213.742 C 186.370 214.336,186.831 215.003,187.246 215.225 C 187.661 215.447,188.000 216.046,188.000 216.556 C 188.000 217.066,188.450 217.969,189.000 218.562 C 189.550 219.156,190.000 219.964,190.000 220.359 C 190.000 220.754,190.360 221.493,190.800 222.000 C 191.240 222.507,191.600 223.184,191.600 223.503 C 191.600 223.823,192.050 224.619,192.600 225.273 C 193.150 225.927,193.600 226.870,193.600 227.369 C 193.600 227.868,193.960 228.602,194.400 229.000 C 194.840 229.398,195.200 230.122,195.200 230.608 C 195.200 231.094,195.549 231.936,195.975 232.478 C 196.402 233.020,196.877 233.989,197.032 234.632 C 197.186 235.274,197.673 236.145,198.112 236.568 C 198.552 236.990,198.837 237.170,198.745 236.968 C 195.646 230.117,188.416 215.936,187.475 214.863 C 187.156 214.498,186.762 213.750,186.600 213.200 C 186.438 212.650,186.078 211.930,185.801 211.600 C 185.523 211.270,184.998 210.460,184.632 209.800 C 184.267 209.140,183.532 207.880,182.998 207.000 C 182.465 206.120,181.742 204.797,181.392 204.059 C 181.042 203.322,180.582 202.512,180.370 202.259 C 179.456 201.168,177.614 198.162,177.607 197.749 C 177.603 197.501,177.320 197.065,176.977 196.781 C 176.634 196.496,176.088 195.709,175.763 195.032 C 175.438 194.354,174.729 193.080,174.189 192.200 C 173.648 191.320,172.932 190.060,172.597 189.400 C 172.262 188.740,171.458 187.300,170.811 186.200 C 170.164 185.100,169.447 183.750,169.218 183.200 C 168.988 182.650,168.619 181.930,168.397 181.600 C 168.176 181.270,167.797 180.550,167.556 180.000 C 166.715 178.082,165.085 174.589,164.345 173.121 C 163.935 172.307,163.600 171.315,163.600 170.915 C 163.600 170.515,163.253 169.540,162.828 168.747 C 162.403 167.955,161.877 166.428,161.659 165.353 C 161.441 164.279,160.988 162.590,160.651 161.600 C 160.314 160.610,159.868 158.720,159.658 157.400 C 159.449 156.080,159.084 154.280,158.848 153.400 C 158.034 150.365,158.289 132.688,159.200 129.000 C 159.635 127.240,160.001 125.170,160.013 124.400 C 160.025 123.630,160.308 122.280,160.642 121.400 C 160.976 120.520,161.483 118.900,161.770 117.800 C 162.057 116.700,162.585 115.260,162.943 114.600 C 163.302 113.940,163.596 113.192,163.598 112.937 C 163.600 112.504,165.232 108.942,166.043 107.600 C 166.243 107.270,166.628 106.550,166.899 106.000 C 170.184 99.342,184.172 85.200,187.473 85.200 C 187.709 85.200,188.118 84.939,188.383 84.620 C 188.648 84.302,189.525 83.829,190.332 83.570 C 191.139 83.311,192.070 82.866,192.400 82.581 C 192.730 82.296,193.540 81.931,194.200 81.770 C 194.860 81.609,196.027 81.145,196.794 80.739 C 197.561 80.332,198.641 79.996,199.194 79.991 C 199.747 79.986,200.949 79.642,201.864 79.227 C 202.779 78.811,204.759 78.349,206.264 78.199 C 207.769 78.049,210.509 77.673,212.352 77.363 C 217.065 76.571,225.144 76.606,226.311 77.423 C 227.199 78.044,227.200 78.066,227.200 91.009 C 227.200 106.374,228.032 104.800,219.913 104.800 C 215.927 104.800,213.506 104.990,211.987 105.422 C 210.784 105.764,208.884 106.281,207.764 106.571 C 206.643 106.861,205.293 107.372,204.764 107.708 C 204.234 108.043,203.375 108.444,202.856 108.599 C 201.390 109.038,196.154 112.764,194.074 114.847 C 191.269 117.658,188.979 120.917,188.548 122.710 C 188.404 123.310,187.973 124.430,187.591 125.200 C 185.786 128.832,185.690 147.837,187.459 151.300 C 187.768 151.905,188.198 153.333,188.414 154.472 C 188.630 155.612,189.055 156.827,189.359 157.172 C 189.662 157.517,190.044 158.430,190.206 159.200 C 190.368 159.970,190.814 161.230,191.198 162.000 C 191.581 162.770,192.252 164.210,192.688 165.200 C 194.374 169.031,196.475 173.199,196.829 173.418 C 197.033 173.544,197.200 173.962,197.200 174.346 C 197.200 174.730,197.650 175.655,198.200 176.400 C 198.750 177.145,199.200 178.053,199.200 178.416 C 199.200 178.779,199.544 179.387,199.964 179.767 C 200.384 180.148,200.845 180.926,200.989 181.498 C 201.132 182.069,201.598 182.980,202.025 183.522 C 202.451 184.064,202.800 184.694,202.800 184.922 C 202.800 185.150,203.048 185.621,203.350 185.969 C 203.653 186.316,204.558 187.851,205.361 189.380 C 206.164 190.909,207.065 192.439,207.364 192.780 C 207.662 193.121,208.513 194.442,209.253 195.715 C 210.761 198.306,211.903 200.209,212.809 201.639 C 213.632 202.939,214.238 203.937,215.211 205.600 C 215.661 206.370,216.464 207.720,216.994 208.600 C 217.525 209.480,218.148 210.650,218.379 211.200 C 218.610 211.750,218.982 212.470,219.205 212.800 C 219.428 213.130,219.966 214.120,220.400 215.000 C 220.834 215.880,221.356 216.870,221.560 217.200 C 221.763 217.530,222.411 218.880,222.999 220.200 C 223.588 221.520,224.414 223.266,224.835 224.079 C 225.256 224.893,225.602 225.793,225.604 226.079 C 225.606 226.366,226.050 227.500,226.591 228.600 C 227.132 229.700,227.585 230.960,227.596 231.400 C 227.608 231.840,227.945 232.920,228.344 233.800 C 228.744 234.680,229.195 236.335,229.346 237.477 C 229.498 238.619,229.890 240.195,230.217 240.980 C 232.165 245.641,232.171 270.345,230.225 275.002 C 229.893 275.796,229.502 277.381,229.356 278.523 C 229.210 279.665,228.755 281.268,228.345 282.084 C 227.935 282.900,227.600 283.926,227.600 284.363 C 227.600 284.800,227.150 286.004,226.600 287.038 C 226.050 288.073,225.600 289.242,225.600 289.636 C 225.600 290.030,225.420 290.464,225.201 290.600 C 224.981 290.735,224.357 291.787,223.813 292.937 C 221.070 298.734,215.335 305.544,208.479 311.142 C 207.093 312.274,205.801 313.200,205.608 313.200 C 205.415 313.200,205.018 313.439,204.725 313.732 C 204.128 314.330,203.370 314.756,199.102 316.900 C 197.460 317.725,195.865 318.401,195.558 318.403 C 195.251 318.404,194.460 318.763,193.800 319.200 C 193.140 319.637,192.202 319.996,191.715 319.997 C 191.228 319.999,189.961 320.342,188.900 320.761 C 187.839 321.179,185.897 321.643,184.585 321.792 C 183.273 321.941,180.785 322.319,179.056 322.631 C 174.023 323.542,164.542 323.412,164.014 322.426 C 163.350 321.186,163.457 296.217,164.128 295.659 C 164.448 295.394,167.176 295.173,171.028 295.100 L 177.400 294.978 170.780 294.889 C 166.060 294.826,164.022 294.938,163.680 295.280 C 163.081 295.879,162.999 322.265,163.593 323.200 C 164.123 324.033,179.304 323.886,180.603 323.035 C 181.065 322.732,183.053 322.352,185.021 322.189 C 187.567 321.979,188.875 321.678,189.554 321.147 C 190.097 320.722,191.151 320.400,192.000 320.400 C 192.901 320.400,193.907 320.074,194.540 319.576 C 195.116 319.123,196.213 318.650,196.977 318.526 C 197.741 318.402,198.671 317.963,199.045 317.550 C 199.418 317.138,200.124 316.800,200.613 316.800 C 201.102 316.800,201.749 316.502,202.051 316.138 C 202.353 315.774,203.185 315.232,203.900 314.933 C 204.615 314.634,205.200 314.231,205.200 314.038 C 205.200 313.845,205.605 313.583,206.100 313.457 C 206.595 313.331,207.848 312.411,208.885 311.414 C 209.922 310.416,210.882 309.600,211.018 309.600 C 211.340 309.600,217.200 303.740,217.200 303.418 C 217.200 303.282,218.010 302.326,219.000 301.292 C 219.990 300.259,220.800 299.184,220.800 298.903 C 220.800 298.622,221.160 298.084,221.600 297.707 C 222.040 297.330,222.400 296.801,222.400 296.532 C 222.400 296.262,222.850 295.556,223.400 294.962 C 223.950 294.369,224.400 293.487,224.400 293.004 C 224.400 292.520,224.760 291.798,225.200 291.400 C 225.640 291.002,226.000 290.289,226.000 289.816 C 226.000 289.343,226.450 288.345,227.000 287.600 C 227.637 286.737,228.000 285.714,228.000 284.784 C 228.000 283.867,228.278 283.073,228.746 282.649 C 229.274 282.171,229.554 281.209,229.702 279.367 C 229.833 277.739,230.162 276.484,230.581 276.021 C 231.090 275.459,231.329 274.048,231.578 270.141 C 231.759 267.313,232.108 264.493,232.353 263.874 C 232.932 262.415,232.933 253.190,232.355 251.726 C 232.110 251.107,231.759 248.374,231.575 245.653 C 231.326 241.990,231.069 240.519,230.584 239.983 C 230.191 239.549,229.843 238.247,229.713 236.730 C 229.593 235.328,229.226 233.889,228.889 233.503 C 228.555 233.120,228.132 231.860,227.949 230.704 C 227.766 229.548,227.328 228.390,226.975 228.132 C 226.621 227.874,226.235 226.936,226.116 226.047 C 225.997 225.159,225.562 224.127,225.150 223.754 C 224.737 223.381,224.400 222.592,224.400 222.000 C 224.400 221.408,224.058 220.614,223.640 220.236 C 223.221 219.857,222.761 218.920,222.618 218.153 C 222.474 217.386,222.101 216.660,221.789 216.540 C 221.477 216.421,221.104 215.698,220.961 214.934 C 220.818 214.170,220.363 213.334,219.950 213.076 C 219.538 212.818,219.200 212.210,219.200 211.724 C 219.200 211.239,218.750 210.356,218.200 209.762 C 217.650 209.169,217.200 208.362,217.200 207.970 C 217.200 207.578,216.898 206.955,216.528 206.585 C 215.843 205.900,214.917 204.375,213.845 202.168 C 213.515 201.491,212.966 200.704,212.623 200.419 C 212.280 200.135,212.000 199.595,212.000 199.221 C 212.000 198.846,211.550 198.117,211.000 197.600 C 210.450 197.083,210.000 196.326,210.000 195.918 C 210.000 195.509,209.746 195.078,209.436 194.959 C 209.126 194.839,208.770 194.336,208.646 193.840 C 208.521 193.344,207.965 192.447,207.410 191.848 C 206.854 191.249,206.400 190.402,206.400 189.967 C 206.400 189.531,206.139 189.075,205.819 188.952 C 205.500 188.830,205.041 188.130,204.799 187.397 C 204.557 186.664,204.110 185.857,203.805 185.604 C 203.501 185.352,203.139 184.632,203.001 184.006 C 202.864 183.379,202.509 182.774,202.213 182.660 C 201.917 182.547,201.558 181.921,201.415 181.269 C 201.272 180.616,200.805 179.766,200.377 179.379 C 199.950 178.993,199.600 178.353,199.600 177.959 C 199.600 177.564,199.150 176.756,198.600 176.162 C 198.050 175.569,197.600 174.687,197.600 174.204 C 197.600 173.720,197.240 172.998,196.800 172.600 C 196.360 172.202,196.000 171.463,196.000 170.959 C 196.000 170.454,195.550 169.556,195.000 168.962 C 194.450 168.369,194.000 167.409,194.000 166.830 C 194.000 166.252,193.640 165.470,193.200 165.093 C 192.737 164.696,192.400 163.913,192.400 163.232 C 192.400 162.586,192.131 161.788,191.802 161.459 C 191.040 160.697,190.400 159.023,190.400 157.794 C 190.400 157.269,190.099 156.672,189.732 156.466 C 189.283 156.215,188.970 155.296,188.778 153.663 C 188.620 152.327,188.219 150.962,187.886 150.629 C 186.501 149.244,186.461 127.480,187.840 125.956 C 188.188 125.572,188.635 124.532,188.834 123.645 C 189.034 122.759,189.748 121.261,190.421 120.317 C 191.095 119.373,192.004 118.031,192.441 117.336 C 192.879 116.640,193.499 115.971,193.818 115.848 C 194.138 115.726,194.400 115.349,194.400 115.013 C 194.400 114.676,194.660 114.400,194.977 114.400 C 195.295 114.400,195.790 114.067,196.077 113.660 C 196.365 113.252,197.185 112.618,197.900 112.249 C 198.615 111.881,199.200 111.408,199.200 111.197 C 199.200 110.987,199.695 110.696,200.300 110.551 C 200.905 110.406,201.722 109.953,202.116 109.544 C 202.509 109.135,203.250 108.800,203.762 108.800 C 204.273 108.800,205.137 108.450,205.681 108.022 C 206.224 107.595,207.644 107.122,208.835 106.971 C 210.026 106.820,211.334 106.405,211.741 106.048 C 212.347 105.519,213.827 105.363,219.809 105.200 C 223.839 105.090,227.286 104.850,227.468 104.667 C 227.916 104.218,228.122 79.581,227.691 77.918 L 227.350 76.600 219.175 76.492 C 212.608 76.406,210.840 76.497,210.185 76.956 M258.229 77.029 C 257.488 77.769,257.253 322.031,257.991 323.200 C 258.456 323.936,322.659 324.338,324.555 323.617 L 325.610 323.216 325.505 309.108 L 325.400 295.000 305.600 294.791 C 294.710 294.675,285.800 294.540,285.800 294.491 C 285.800 294.441,285.800 275.995,285.800 253.500 C 285.800 226.696,285.938 212.499,286.200 212.306 C 286.420 212.144,294.627 212.009,304.438 212.006 C 321.207 212.000,322.316 211.956,322.938 211.269 C 324.002 210.093,323.938 184.030,322.869 183.062 C 322.211 182.467,320.365 182.400,304.717 182.400 C 289.003 182.400,287.244 182.335,286.749 181.739 C 286.060 180.908,285.520 106.005,286.200 105.506 C 286.420 105.344,295.159 105.209,305.620 105.206 C 319.873 105.202,324.760 105.080,325.120 104.720 C 325.474 104.366,325.600 100.720,325.600 90.800 C 325.600 80.880,325.474 77.234,325.120 76.880 C 324.295 76.055,259.057 76.200,258.229 77.029 M101.959 77.762 L 102.800 78.524 102.800 186.619 C 102.800 284.819,102.858 294.737,103.433 294.957 C 103.781 295.091,112.219 295.200,122.184 295.200 C 138.549 295.200,140.355 295.264,140.851 295.861 C 141.657 296.833,141.657 321.567,140.851 322.539 C 140.007 323.555,77.193 323.555,76.349 322.539 C 75.327 321.307,75.553 78.757,76.577 77.626 C 77.711 76.372,100.560 76.495,101.959 77.762 M324.720 77.680 C 325.407 78.367,325.407 103.633,324.720 104.320 C 324.360 104.680,319.473 104.802,305.220 104.806 C 294.759 104.809,285.971 104.957,285.692 105.135 C 285.168 105.467,284.915 181.848,285.437 182.371 C 285.563 182.497,293.694 182.650,303.507 182.712 C 315.659 182.789,321.515 182.964,321.874 183.261 C 322.738 183.978,322.636 211.024,321.767 211.357 C 321.419 211.491,313.364 211.613,303.867 211.628 C 294.370 211.644,286.283 211.782,285.896 211.935 C 284.802 212.368,284.802 294.432,285.896 294.865 C 286.283 295.018,295.069 295.156,305.420 295.172 C 319.492 295.193,324.361 295.321,324.720 295.680 C 325.347 296.307,325.408 321.263,324.786 322.426 C 324.382 323.182,323.594 323.200,291.809 323.200 L 259.245 323.200 258.623 322.311 C 257.515 320.730,257.691 79.109,258.800 78.000 C 259.781 77.019,323.749 76.709,324.720 77.680 M198.818 238.646 C 198.808 239.331,199.133 240.321,199.540 240.846 C 199.946 241.371,200.405 242.605,200.559 243.590 C 200.712 244.574,201.129 245.700,201.484 246.093 C 201.913 246.566,202.221 247.946,202.399 250.182 C 202.554 252.136,202.905 253.845,203.233 254.241 C 204.045 255.220,204.054 267.572,203.243 268.548 C 202.935 268.919,202.547 270.748,202.374 272.643 C 202.172 274.862,201.856 276.231,201.475 276.533 C 201.152 276.790,200.680 277.659,200.425 278.465 C 200.170 279.270,199.700 280.030,199.381 280.152 C 199.061 280.275,198.800 280.676,198.800 281.044 C 198.800 281.413,197.315 283.137,195.500 284.877 C 191.397 288.810,191.098 289.054,189.939 289.410 C 189.423 289.569,188.678 290.037,188.284 290.450 C 187.891 290.862,187.133 291.200,186.600 291.200 C 186.067 291.200,185.309 291.540,184.916 291.955 C 184.492 292.402,183.339 292.826,182.090 292.994 C 180.929 293.150,179.746 293.511,179.461 293.796 C 179.176 294.081,178.596 294.402,178.172 294.510 C 177.485 294.686,177.479 294.712,178.120 294.754 C 178.516 294.779,179.326 294.552,179.920 294.248 C 180.514 293.945,181.630 293.573,182.400 293.422 C 184.359 293.037,189.121 290.624,192.657 288.225 C 197.212 285.133,202.021 278.302,202.812 273.800 C 203.005 272.700,203.459 270.450,203.820 268.800 C 204.582 265.324,204.479 254.441,203.671 252.932 C 203.415 252.454,203.040 250.894,202.838 249.466 C 202.636 248.037,202.204 246.268,201.878 245.534 C 201.553 244.800,201.014 243.390,200.681 242.400 C 200.348 241.410,199.796 239.880,199.455 239.000 L 198.835 237.400 198.818 238.646 " stroke="none" fill="#f45e66" fill-rule="evenodd"></path><path id="path3" d="M2.400 200.000 L 2.400 397.600 200.000 397.600 L 397.600 397.600 397.600 200.000 L 397.600 2.400 200.000 2.400 L 2.400 2.400 2.400 200.000 M395.920 4.080 C 396.620 4.780,396.620 395.220,395.920 395.920 C 395.220 396.620,4.780 396.620,4.080 395.920 C 3.380 395.220,3.380 4.780,4.080 4.080 C 4.780 3.380,395.220 3.380,395.920 4.080 M76.800 75.200 C 76.406 75.455,80.590 75.588,89.000 75.588 C 97.410 75.588,101.594 75.455,101.200 75.200 C 100.848 74.972,95.810 74.812,89.000 74.812 C 82.190 74.812,77.152 74.972,76.800 75.200 M211.600 75.200 C 211.201 75.458,213.589 75.590,218.724 75.594 C 223.772 75.598,226.362 75.461,226.200 75.200 C 225.878 74.678,212.407 74.678,211.600 75.200 M259.600 75.200 C 259.210 75.452,270.407 75.588,291.600 75.588 C 312.793 75.588,323.990 75.452,323.600 75.200 C 323.226 74.958,311.193 74.812,291.600 74.812 C 272.007 74.812,259.974 74.958,259.600 75.200 M202.684 76.650 C 201.952 77.382,202.608 77.627,205.004 77.518 C 206.436 77.453,207.651 77.220,207.704 77.000 C 207.814 76.543,203.118 76.215,202.684 76.650 M103.995 185.076 C 103.992 244.214,103.881 293.005,103.748 293.500 L 103.507 294.400 122.402 294.400 C 139.153 294.400,141.241 294.332,140.800 293.800 C 140.371 293.284,137.895 293.200,123.031 293.200 C 110.131 293.200,105.639 293.079,105.280 292.720 C 104.909 292.349,104.800 267.907,104.800 185.144 C 104.800 114.177,104.665 77.964,104.400 77.800 C 104.134 77.635,103.998 113.497,103.995 185.076 M228.413 90.980 C 228.403 101.844,228.500 104.460,228.900 104.061 C 229.716 103.245,229.836 79.266,229.029 78.198 C 228.487 77.482,228.424 78.788,228.413 90.980 M256.270 78.162 C 255.873 79.198,255.953 321.306,256.351 321.934 C 257.136 323.172,257.188 315.331,257.166 199.800 C 257.146 88.274,257.056 76.114,256.270 78.162 M326.000 91.233 C 326.000 101.962,326.107 104.831,326.500 104.700 C 327.019 104.527,327.482 80.461,327.004 78.500 C 326.255 75.429,326.000 78.666,326.000 91.233 M196.576 78.587 C 195.864 79.126,195.989 79.176,198.087 79.187 C 199.960 79.198,200.333 79.091,200.145 78.600 C 199.846 77.821,197.600 77.813,196.576 78.587 M193.400 79.951 C 191.811 80.291,191.869 80.968,193.500 81.125 C 194.587 81.230,194.800 81.116,194.800 80.425 C 194.800 79.971,194.755 79.621,194.700 79.647 C 194.645 79.673,194.060 79.810,193.400 79.951 M188.667 81.867 C 188.093 82.440,188.453 82.800,189.600 82.800 C 190.882 82.800,191.212 82.244,190.167 81.843 C 189.354 81.531,188.997 81.536,188.667 81.867 M185.400 84.000 C 185.256 84.233,185.663 84.400,186.376 84.400 C 187.049 84.400,187.600 84.220,187.600 84.000 C 187.600 83.780,187.161 83.600,186.624 83.600 C 186.087 83.600,185.536 83.780,185.400 84.000 M182.991 85.609 C 182.296 86.378,182.306 86.400,183.338 86.400 C 183.996 86.400,184.400 86.181,184.400 85.824 C 184.400 84.869,183.751 84.770,182.991 85.609 M177.855 89.400 C 177.715 89.765,177.855 90.000,178.213 90.000 C 178.536 90.000,178.800 89.730,178.800 89.400 C 178.800 89.070,178.639 88.800,178.443 88.800 C 178.246 88.800,177.982 89.070,177.855 89.400 M176.267 90.667 C 175.806 91.127,175.975 91.600,176.600 91.600 C 176.930 91.600,177.200 91.330,177.200 91.000 C 177.200 90.375,176.727 90.206,176.267 90.667 M174.267 92.667 C 173.806 93.127,173.975 93.600,174.600 93.600 C 174.930 93.600,175.200 93.330,175.200 93.000 C 175.200 92.375,174.727 92.206,174.267 92.667 M172.667 94.267 C 172.206 94.727,172.375 95.200,173.000 95.200 C 173.330 95.200,173.600 94.930,173.600 94.600 C 173.600 93.975,173.127 93.806,172.667 94.267 M169.280 99.280 C 168.627 99.933,168.677 100.400,169.400 100.400 C 169.733 100.400,170.000 100.044,170.000 99.600 C 170.000 98.668,169.926 98.634,169.280 99.280 M166.972 101.645 C 166.677 102.123,167.565 102.869,168.063 102.561 C 168.438 102.329,168.037 101.200,167.581 101.200 C 167.397 101.200,167.124 101.400,166.972 101.645 M165.680 104.480 C 165.013 105.147,165.080 106.000,165.800 106.000 C 166.173 106.000,166.400 105.622,166.400 105.000 C 166.400 103.860,166.342 103.818,165.680 104.480 M213.200 105.976 C 213.200 107.089,225.684 107.278,226.786 106.183 C 227.299 105.672,226.492 105.600,220.286 105.600 C 216.125 105.600,213.200 105.755,213.200 105.976 M286.800 106.300 C 286.800 106.966,322.885 107.256,324.700 106.605 C 327.017 105.773,323.793 105.600,306.000 105.600 C 287.981 105.600,286.800 105.643,286.800 106.300 M163.612 107.768 C 163.197 108.859,163.345 109.600,163.977 109.600 C 164.460 109.600,164.799 107.463,164.384 107.035 C 164.174 106.819,163.859 107.118,163.612 107.768 M207.067 107.467 C 205.939 108.595,207.474 109.154,209.474 108.344 L 210.600 107.888 209.600 107.584 C 208.275 107.181,207.393 107.140,207.067 107.467 M203.200 109.800 C 203.200 110.130,203.448 110.400,203.751 110.400 C 204.054 110.400,204.526 110.130,204.800 109.800 C 205.221 109.293,205.136 109.200,204.249 109.200 C 203.583 109.200,203.200 109.419,203.200 109.800 M162.014 111.174 C 161.430 112.265,161.500 113.076,162.200 113.345 C 162.671 113.525,162.800 113.234,162.800 111.987 C 162.800 110.216,162.624 110.034,162.014 111.174 M199.778 111.235 C 199.631 111.474,199.702 111.862,199.938 112.098 C 200.437 112.597,201.736 111.743,201.372 111.155 C 201.068 110.662,200.102 110.711,199.778 111.235 M198.000 113.449 C 198.000 113.980,198.109 114.008,198.600 113.600 C 198.930 113.326,199.200 113.034,199.200 112.951 C 199.200 112.868,198.930 112.800,198.600 112.800 C 198.270 112.800,198.000 113.092,198.000 113.449 M159.999 116.203 C 159.461 117.617,159.628 118.600,160.405 118.600 C 160.789 118.600,161.046 118.120,161.129 117.249 C 161.306 115.404,160.564 114.718,159.999 116.203 M191.067 119.867 C 190.920 120.013,190.800 120.373,190.800 120.667 C 190.800 121.375,191.856 121.353,192.130 120.639 C 192.453 119.797,191.690 119.243,191.067 119.867 M158.393 121.214 C 157.827 122.271,158.051 125.688,158.700 125.902 C 159.068 126.023,159.200 125.321,159.200 123.233 C 159.200 120.217,159.083 119.924,158.393 121.214 M189.200 124.086 C 189.200 125.276,189.248 125.323,189.855 124.717 C 190.215 124.357,190.400 123.778,190.267 123.431 C 189.850 122.344,189.200 122.742,189.200 124.086 M187.536 127.884 C 187.274 129.596,187.426 148.759,187.703 149.036 C 188.445 149.779,188.600 147.870,188.600 137.971 C 188.600 130.295,188.468 127.023,188.153 126.918 C 187.907 126.836,187.630 127.271,187.536 127.884 M156.567 130.094 C 156.178 131.303,156.173 151.844,156.561 153.503 C 157.316 156.737,157.600 153.593,157.600 142.000 C 157.600 130.512,157.352 127.650,156.567 130.094 M189.213 153.333 C 189.203 155.025,189.337 155.622,189.700 155.502 C 190.443 155.258,190.532 152.727,189.831 151.800 C 189.268 151.056,189.225 151.163,189.213 153.333 M190.984 157.729 C 190.654 159.035,191.318 160.042,192.036 159.324 C 192.350 159.010,192.304 158.570,191.870 157.744 L 191.269 156.600 190.984 157.729 M158.159 158.622 C 157.849 159.857,158.213 162.373,158.785 162.945 C 159.072 163.232,159.200 162.467,159.200 160.480 C 159.200 157.616,158.655 156.644,158.159 158.622 M192.800 163.000 C 192.800 163.770,192.959 164.400,193.153 164.400 C 193.615 164.400,194.006 162.881,193.730 162.161 C 193.329 161.116,192.800 161.593,192.800 163.000 M159.921 165.300 C 159.827 165.795,159.916 166.830,160.120 167.600 C 160.612 169.457,161.396 167.779,161.007 165.700 C 160.726 164.197,160.171 163.993,159.921 165.300 M194.400 166.776 C 194.400 168.045,195.036 168.724,195.650 168.110 C 196.107 167.653,195.421 165.600,194.810 165.600 C 194.584 165.600,194.400 166.129,194.400 166.776 M196.413 170.100 C 196.404 171.172,196.571 171.600,197.000 171.600 C 197.767 171.600,197.773 170.382,197.013 169.376 C 196.462 168.649,196.425 168.694,196.413 170.100 M161.756 171.034 C 161.580 171.733,161.707 172.279,162.148 172.720 C 162.751 173.322,162.800 173.244,162.800 171.686 C 162.800 169.819,162.161 169.420,161.756 171.034 M198.000 173.751 C 198.000 174.772,198.177 175.200,198.600 175.200 C 198.965 175.200,199.200 174.828,199.200 174.249 C 199.200 173.726,198.930 173.074,198.600 172.800 C 198.085 172.373,198.000 172.508,198.000 173.751 M163.200 175.226 C 163.200 175.461,163.407 176.039,163.660 176.511 L 164.119 177.370 164.460 176.448 C 164.648 175.941,164.701 175.363,164.577 175.163 C 164.265 174.658,163.200 174.707,163.200 175.226 M200.000 177.376 C 200.000 178.159,200.180 178.800,200.400 178.800 C 200.620 178.800,200.800 178.271,200.800 177.624 C 200.800 176.977,200.620 176.336,200.400 176.200 C 200.162 176.053,200.000 176.529,200.000 177.376 M165.275 179.669 C 165.456 181.503,166.400 181.641,166.400 179.833 C 166.400 178.800,166.225 178.400,165.775 178.400 C 165.313 178.400,165.182 178.731,165.275 179.669 M287.073 179.754 C 286.942 180.095,286.995 180.473,287.190 180.594 C 287.700 180.909,288.004 180.254,287.629 179.647 C 287.381 179.246,287.259 179.269,287.073 179.754 M201.600 180.400 C 201.600 180.916,201.803 181.199,202.100 181.100 C 202.375 181.008,202.600 180.693,202.600 180.400 C 202.600 180.107,202.375 179.792,202.100 179.700 C 201.803 179.601,201.600 179.884,201.600 180.400 M166.800 182.724 C 166.800 183.121,167.064 183.796,167.387 184.224 C 167.938 184.951,167.975 184.906,167.987 183.500 C 167.996 182.428,167.829 182.000,167.400 182.000 C 167.070 182.000,166.800 182.326,166.800 182.724 M203.464 183.377 C 203.187 184.101,203.918 184.642,204.452 184.108 C 204.695 183.865,204.626 183.554,204.264 183.253 C 203.816 182.881,203.644 182.908,203.464 183.377 M168.860 186.800 C 169.090 187.460,169.441 188.000,169.639 188.000 C 169.838 188.000,170.000 187.460,170.000 186.800 C 170.000 185.877,169.820 185.600,169.221 185.600 C 168.529 185.600,168.488 185.734,168.860 186.800 M205.200 186.967 C 205.200 187.639,205.419 188.000,205.828 188.000 C 206.245 188.000,206.413 187.708,206.328 187.131 C 206.139 185.851,205.200 185.714,205.200 186.967 M170.886 189.138 C 170.603 189.318,170.488 189.764,170.629 190.132 C 171.014 191.136,171.600 190.935,171.600 189.800 C 171.600 188.683,171.601 188.685,170.886 189.138 M207.061 189.386 C 206.599 190.589,206.781 191.200,207.600 191.200 C 208.528 191.200,208.567 190.952,207.847 189.653 C 207.391 188.831,207.287 188.796,207.061 189.386 M208.800 192.600 C 208.800 192.930,209.064 193.200,209.387 193.200 C 209.745 193.200,209.885 192.965,209.745 192.600 C 209.618 192.270,209.354 192.000,209.157 192.000 C 208.961 192.000,208.800 192.270,208.800 192.600 M172.462 193.021 C 172.538 193.413,172.842 193.814,173.138 193.913 C 173.482 194.028,173.627 193.835,173.538 193.379 C 173.462 192.987,173.158 192.586,172.862 192.487 C 172.518 192.372,172.373 192.565,172.462 193.021 M174.667 195.467 C 174.252 195.882,174.353 197.200,174.800 197.200 C 175.020 197.200,175.200 196.750,175.200 196.200 C 175.200 195.153,175.108 195.026,174.667 195.467 M210.400 196.000 C 210.400 196.547,210.667 196.800,211.243 196.800 C 211.847 196.800,212.017 196.621,211.843 196.167 C 211.709 195.819,211.600 195.459,211.600 195.367 C 211.600 195.275,211.330 195.200,211.000 195.200 C 210.667 195.200,210.400 195.556,210.400 196.000 M212.400 198.776 C 212.400 199.449,212.580 200.000,212.800 200.000 C 213.020 200.000,213.200 199.561,213.200 199.024 C 213.200 198.487,213.020 197.936,212.800 197.800 C 212.567 197.656,212.400 198.063,212.400 198.776 M175.600 198.226 C 175.600 198.855,176.489 199.992,176.820 199.788 C 177.550 199.336,177.236 198.000,176.400 198.000 C 175.960 198.000,175.600 198.102,175.600 198.226 M214.000 201.176 C 214.000 202.051,214.625 202.607,214.974 202.043 C 215.266 201.570,214.827 200.400,214.357 200.400 C 214.161 200.400,214.000 200.749,214.000 201.176 M178.000 201.592 C 177.475 201.923,177.488 202.059,178.100 202.671 C 178.767 203.338,178.800 203.320,178.800 202.286 C 178.800 201.061,178.816 201.075,178.000 201.592 M179.214 203.900 C 179.222 204.065,179.486 204.650,179.800 205.200 L 180.372 206.200 180.386 204.900 C 180.396 204.005,180.213 203.600,179.800 203.600 C 179.470 203.600,179.206 203.735,179.214 203.900 M216.013 204.500 C 216.004 205.217,216.209 205.600,216.600 205.600 C 217.357 205.600,217.361 205.166,216.613 204.176 C 216.050 203.433,216.025 203.446,216.013 204.500 M217.613 207.700 C 217.604 208.772,217.771 209.200,218.200 209.200 C 218.967 209.200,218.973 207.982,218.213 206.976 C 217.662 206.249,217.625 206.294,217.613 207.700 M181.272 207.669 C 181.461 208.949,182.400 209.086,182.400 207.833 C 182.400 207.161,182.181 206.800,181.772 206.800 C 181.355 206.800,181.187 207.092,181.272 207.669 M219.499 210.098 C 219.249 210.840,219.636 212.025,220.045 211.772 C 220.510 211.485,220.502 210.110,220.034 209.821 C 219.833 209.697,219.592 209.821,219.499 210.098 M183.200 210.392 C 182.675 210.723,182.688 210.859,183.300 211.471 C 183.967 212.138,184.000 212.120,184.000 211.086 C 184.000 209.861,184.016 209.875,183.200 210.392 M286.886 213.100 C 286.982 213.562,287.297 213.739,287.815 213.621 C 288.247 213.523,295.975 213.384,304.989 213.312 C 314.950 213.233,321.531 213.029,321.769 212.791 C 322.024 212.536,315.989 212.400,304.451 212.400 C 287.796 212.400,286.750 212.442,286.886 213.100 M221.200 213.714 C 221.200 214.819,221.733 215.156,222.224 214.362 C 222.373 214.121,222.203 213.632,221.847 213.276 C 221.251 212.679,221.200 212.714,221.200 213.714 M185.000 214.000 C 184.708 214.472,185.087 215.200,185.624 215.200 C 185.831 215.200,186.000 214.840,186.000 214.400 C 186.000 213.556,185.418 213.324,185.000 214.000 M186.800 217.176 C 186.800 217.823,186.980 218.464,187.200 218.600 C 187.438 218.747,187.600 218.271,187.600 217.424 C 187.600 216.641,187.420 216.000,187.200 216.000 C 186.980 216.000,186.800 216.529,186.800 217.176 M222.975 216.927 C 222.632 217.813,223.411 218.749,224.001 218.159 C 224.270 217.890,224.213 217.499,223.830 216.979 C 223.284 216.236,223.244 216.234,222.975 216.927 M188.000 219.626 C 188.000 220.310,188.793 221.600,189.214 221.600 C 189.426 221.600,189.600 221.060,189.600 220.400 C 189.600 219.467,189.422 219.200,188.800 219.200 C 188.360 219.200,188.000 219.392,188.000 219.626 M224.800 221.314 C 224.800 222.933,225.386 223.304,225.814 221.955 C 225.985 221.416,225.850 220.879,225.441 220.470 C 224.853 219.882,224.800 219.951,224.800 221.314 M190.000 223.351 C 190.000 223.654,190.270 224.126,190.600 224.400 C 191.107 224.821,191.200 224.736,191.200 223.849 C 191.200 223.183,190.981 222.800,190.600 222.800 C 190.270 222.800,190.000 223.048,190.000 223.351 M226.400 225.600 C 226.400 226.770,226.565 227.200,227.013 227.200 C 227.861 227.200,228.109 226.338,227.626 225.069 C 227.028 223.496,226.400 223.768,226.400 225.600 M191.600 226.626 C 191.600 227.255,192.489 228.392,192.820 228.188 C 193.550 227.736,193.236 226.400,192.400 226.400 C 191.960 226.400,191.600 226.502,191.600 226.626 M228.413 230.533 C 228.404 231.905,228.545 232.419,228.900 232.302 C 229.643 232.059,229.721 230.314,229.030 229.400 C 228.463 228.650,228.425 228.722,228.413 230.533 M193.932 229.955 C 193.315 230.181,193.312 230.306,193.901 231.600 C 194.475 232.858,194.555 232.909,194.697 232.100 C 194.971 230.542,194.666 229.687,193.932 229.955 M195.200 234.226 C 195.200 235.400,196.042 236.577,196.437 235.954 C 197.101 234.905,196.859 233.600,196.000 233.600 C 195.541 233.600,195.200 233.867,195.200 234.226 M230.000 236.151 C 230.000 237.807,230.147 238.400,230.557 238.400 C 231.665 238.400,231.664 235.283,230.556 234.364 C 230.092 233.979,230.000 234.275,230.000 236.151 M197.200 238.324 C 197.200 238.941,197.464 239.796,197.787 240.224 C 198.331 240.942,198.376 240.858,198.387 239.100 C 198.397 237.672,198.251 237.200,197.800 237.200 C 197.409 237.200,197.200 237.592,197.200 238.324 M232.025 244.200 C 232.025 248.263,232.073 248.539,232.650 247.800 C 233.142 247.169,233.225 246.381,233.040 244.069 C 232.645 239.138,232.024 239.218,232.025 244.200 M199.257 242.356 C 198.883 242.593,198.799 243.087,198.988 243.945 C 199.418 245.904,200.000 245.834,200.000 243.824 C 200.000 242.821,199.955 242.003,199.900 242.006 C 199.845 242.009,199.556 242.167,199.257 242.356 M200.638 247.939 C 200.315 248.462,201.032 252.392,201.544 252.904 C 201.885 253.245,202.000 252.636,202.000 250.480 C 202.000 247.753,201.421 246.672,200.638 247.939 M233.606 257.876 C 233.610 259.524,233.725 260.025,234.000 259.600 C 234.510 258.810,234.510 256.115,234.000 255.800 C 233.751 255.646,233.602 256.428,233.606 257.876 M202.652 257.700 C 202.168 259.508,202.383 264.225,202.987 265.024 C 203.515 265.721,203.576 265.344,203.587 261.300 C 203.599 257.098,203.212 255.609,202.652 257.700 M232.025 271.400 C 232.024 274.870,232.120 275.635,232.477 275.019 C 233.251 273.685,233.368 268.727,232.647 267.800 C 232.074 267.062,232.025 267.343,232.025 271.400 M201.231 270.920 C 200.511 272.812,200.547 274.969,201.300 275.119 C 201.910 275.241,202.000 274.920,202.000 272.629 C 202.000 269.851,201.803 269.413,201.231 270.920 M199.221 277.560 C 198.913 278.135,198.959 278.375,199.407 278.547 C 199.832 278.711,200.000 278.495,200.000 277.787 C 200.000 276.604,199.769 276.536,199.221 277.560 M230.000 280.224 C 230.000 283.261,230.535 283.324,231.171 280.363 C 231.634 278.204,231.504 277.600,230.576 277.600 C 230.133 277.600,230.000 278.206,230.000 280.224 M197.680 280.480 C 197.013 281.147,197.080 282.000,197.800 282.000 C 198.173 282.000,198.400 281.622,198.400 281.000 C 198.400 279.860,198.342 279.818,197.680 280.480 M195.378 282.835 C 195.029 283.400,195.800 284.171,196.365 283.822 C 196.604 283.674,196.800 283.293,196.800 282.976 C 196.800 282.303,195.771 282.200,195.378 282.835 M228.400 285.200 C 228.400 286.664,228.483 286.829,229.000 286.400 C 229.330 286.126,229.600 285.586,229.600 285.200 C 229.600 284.814,229.330 284.274,229.000 284.000 C 228.483 283.571,228.400 283.736,228.400 285.200 M194.100 284.265 C 193.397 284.549,193.475 285.600,194.200 285.600 C 194.533 285.600,194.800 285.244,194.800 284.800 C 194.800 284.360,194.755 284.014,194.700 284.032 C 194.645 284.049,194.375 284.154,194.100 284.265 M191.867 286.267 C 191.360 286.774,191.603 287.200,192.400 287.200 C 192.844 287.200,193.200 286.933,193.200 286.600 C 193.200 285.991,192.354 285.779,191.867 286.267 M188.617 288.372 C 188.321 288.851,189.074 289.325,189.607 288.996 C 190.054 288.719,189.760 288.000,189.200 288.000 C 189.006 288.000,188.744 288.168,188.617 288.372 M226.400 289.576 C 226.400 291.135,226.970 291.424,227.547 290.157 C 228.060 289.032,227.855 288.400,226.976 288.400 C 226.605 288.400,226.400 288.819,226.400 289.576 M184.976 290.187 C 184.254 290.734,184.318 290.775,185.900 290.787 C 187.150 290.797,187.600 290.641,187.600 290.200 C 187.600 289.422,185.998 289.414,184.976 290.187 M180.600 291.756 L 179.400 292.275 180.828 292.449 C 181.614 292.544,182.694 292.517,183.228 292.387 L 184.200 292.151 183.326 291.675 C 182.263 291.097,182.112 291.101,180.600 291.756 M224.813 293.513 C 224.825 294.907,224.862 294.952,225.413 294.224 C 226.164 293.231,226.159 292.547,225.400 292.255 C 224.932 292.076,224.803 292.352,224.813 293.513 M286.658 293.700 C 286.485 294.360,287.594 294.400,305.837 294.400 C 323.784 294.400,327.019 294.228,324.700 293.395 C 322.889 292.746,286.832 293.034,286.658 293.700 M164.100 293.465 C 162.458 294.127,164.354 294.400,170.600 294.400 C 176.556 294.400,177.600 294.310,177.600 293.800 C 177.600 293.207,165.485 292.906,164.100 293.465 M161.843 295.833 C 161.252 297.373,161.582 322.287,162.200 322.800 C 162.731 323.241,162.800 321.692,162.800 309.249 C 162.800 296.489,162.610 293.832,161.843 295.833 M326.000 309.167 C 326.000 322.106,326.251 325.389,327.004 322.300 C 327.483 320.335,327.019 295.473,326.500 295.300 C 326.106 295.169,326.000 298.118,326.000 309.167 M223.067 295.867 C 222.920 296.013,222.800 296.373,222.800 296.667 C 222.800 297.375,223.856 297.353,224.130 296.639 C 224.453 295.797,223.690 295.243,223.067 295.867 M143.378 309.200 C 143.378 316.130,143.433 318.965,143.499 315.500 C 143.566 312.035,143.566 306.365,143.499 302.900 C 143.433 299.435,143.378 302.270,143.378 309.200 M221.200 299.576 C 221.200 300.029,221.380 300.400,221.600 300.400 C 221.820 300.400,222.000 300.141,222.000 299.824 C 222.000 299.507,221.820 299.136,221.600 299.000 C 221.380 298.864,221.200 299.123,221.200 299.576 M219.200 301.829 C 219.200 302.202,219.472 302.406,219.867 302.329 C 220.870 302.135,221.008 301.200,220.033 301.200 C 219.542 301.200,219.200 301.458,219.200 301.829 M217.600 303.600 C 217.600 304.116,217.803 304.399,218.100 304.300 C 218.375 304.208,218.600 303.893,218.600 303.600 C 218.600 303.307,218.375 302.992,218.100 302.900 C 217.803 302.801,217.600 303.084,217.600 303.600 M210.400 310.629 C 210.400 311.002,210.672 311.206,211.067 311.129 C 212.070 310.935,212.208 310.000,211.233 310.000 C 210.742 310.000,210.400 310.258,210.400 310.629 M208.639 311.937 C 208.331 312.435,209.077 313.323,209.555 313.028 C 209.800 312.876,210.000 312.603,210.000 312.419 C 210.000 311.963,208.871 311.562,208.639 311.937 M206.655 314.200 C 206.782 314.530,206.934 314.800,206.994 314.800 C 207.053 314.800,207.326 314.530,207.600 314.200 C 208.016 313.699,207.960 313.600,207.262 313.600 C 206.682 313.600,206.496 313.785,206.655 314.200 M203.351 315.784 C 203.214 316.142,203.188 316.521,203.293 316.627 C 203.632 316.965,204.839 316.317,204.692 315.876 C 204.452 315.155,203.614 315.098,203.351 315.784 M199.600 317.800 C 199.600 318.165,199.972 318.400,200.551 318.400 C 201.074 318.400,201.726 318.130,202.000 317.800 C 202.427 317.285,202.292 317.200,201.049 317.200 C 200.028 317.200,199.600 317.377,199.600 317.800 M196.178 319.235 C 195.682 320.038,196.620 320.465,197.751 319.950 C 198.523 319.598,198.680 319.371,198.311 319.137 C 197.583 318.675,196.494 318.725,196.178 319.235 M190.655 321.400 C 190.950 322.168,192.815 322.175,193.824 321.413 C 194.539 320.872,194.435 320.824,192.513 320.813 C 190.818 320.802,190.468 320.913,190.655 321.400 M183.298 322.666 C 182.224 323.099,183.348 323.600,185.391 323.600 C 187.696 323.600,188.800 323.327,188.800 322.757 C 188.800 322.386,184.181 322.310,183.298 322.666 M76.200 324.800 C 76.361 325.061,87.530 325.200,108.400 325.200 C 129.270 325.200,140.439 325.061,140.600 324.800 C 140.764 324.535,129.930 324.400,108.400 324.400 C 86.870 324.400,76.036 324.535,76.200 324.800 M164.200 324.800 C 164.523 325.322,178.792 325.322,179.600 324.800 C 179.998 324.543,177.469 324.410,172.076 324.406 C 166.761 324.402,164.038 324.538,164.200 324.800 M259.200 324.800 C 260.035 325.339,324.667 325.339,325.000 324.800 C 325.164 324.535,314.039 324.402,291.924 324.406 C 270.261 324.410,258.810 324.548,259.200 324.800 " stroke="none" fill="#ec071c" fill-rule="evenodd"></path><path id="path4" d="M1.680 1.680 C 0.963 2.397,0.982 397.372,1.700 398.917 L 2.200 399.994 199.869 399.997 L 397.538 400.000 398.769 398.769 L 400.000 397.538 399.997 199.869 L 399.994 2.200 398.917 1.700 C 397.372 0.982,2.397 0.963,1.680 1.680 M398.071 2.129 C 398.509 2.566,398.565 36.841,398.400 200.429 L 398.200 398.200 200.429 398.400 C 36.841 398.565,2.566 398.509,2.129 398.071 C 1.385 397.328,1.337 2.823,2.080 2.080 C 2.823 1.337,397.328 1.385,398.071 2.129 M76.577 77.626 C 75.553 78.757,75.327 321.307,76.349 322.539 C 77.193 323.555,140.007 323.555,140.851 322.539 C 141.657 321.567,141.657 296.833,140.851 295.861 C 140.355 295.264,138.549 295.200,122.184 295.200 C 112.219 295.200,103.781 295.091,103.433 294.957 C 102.858 294.737,102.800 284.819,102.800 186.619 L 102.800 78.524 101.959 77.762 C 100.560 76.495,77.711 76.372,76.577 77.626 M212.200 77.378 C 210.660 77.656,208.089 78.011,206.487 78.167 C 204.884 78.323,202.814 78.796,201.887 79.217 C 200.959 79.638,199.747 79.986,199.194 79.991 C 198.641 79.996,197.561 80.332,196.794 80.739 C 196.027 81.145,194.860 81.609,194.200 81.770 C 193.540 81.931,192.730 82.296,192.400 82.581 C 192.070 82.866,191.139 83.311,190.332 83.570 C 189.525 83.829,188.648 84.302,188.383 84.620 C 188.118 84.939,187.709 85.200,187.473 85.200 C 184.172 85.200,170.184 99.342,166.899 106.000 C 166.628 106.550,166.243 107.270,166.043 107.600 C 165.232 108.942,163.600 112.504,163.598 112.937 C 163.596 113.192,163.302 113.940,162.943 114.600 C 162.585 115.260,162.057 116.700,161.770 117.800 C 161.483 118.900,160.976 120.520,160.642 121.400 C 160.308 122.280,160.025 123.630,160.013 124.400 C 160.001 125.170,159.635 127.240,159.200 129.000 C 158.289 132.688,158.034 150.365,158.848 153.400 C 159.084 154.280,159.449 156.080,159.658 157.400 C 159.868 158.720,160.314 160.610,160.651 161.600 C 160.988 162.590,161.441 164.279,161.659 165.353 C 161.877 166.428,162.403 167.955,162.828 168.747 C 163.253 169.540,163.600 170.515,163.600 170.915 C 163.600 171.315,163.935 172.307,164.345 173.121 C 165.085 174.589,166.715 178.082,167.556 180.000 C 167.797 180.550,168.176 181.270,168.397 181.600 C 168.619 181.930,168.988 182.650,169.218 183.200 C 169.447 183.750,170.164 185.100,170.811 186.200 C 171.458 187.300,172.262 188.740,172.597 189.400 C 172.932 190.060,173.648 191.320,174.189 192.200 C 174.729 193.080,175.438 194.354,175.763 195.032 C 176.088 195.709,176.634 196.496,176.977 196.781 C 177.320 197.065,177.603 197.501,177.607 197.749 C 177.614 198.162,179.456 201.168,180.370 202.259 C 180.582 202.512,181.042 203.322,181.392 204.059 C 181.742 204.797,182.465 206.120,182.998 207.000 C 183.532 207.880,184.267 209.140,184.632 209.800 C 184.998 210.460,185.523 211.270,185.801 211.600 C 186.078 211.930,186.438 212.650,186.600 213.200 C 186.762 213.750,187.156 214.498,187.475 214.863 C 188.188 215.675,190.189 219.462,194.206 227.600 C 198.820 236.944,198.938 237.214,200.681 242.400 C 201.014 243.390,201.553 244.800,201.878 245.534 C 202.204 246.268,202.636 248.037,202.838 249.466 C 203.040 250.894,203.415 252.454,203.671 252.932 C 204.479 254.441,204.582 265.324,203.820 268.800 C 203.459 270.450,203.005 272.700,202.812 273.800 C 202.021 278.302,197.212 285.133,192.657 288.225 C 189.121 290.624,184.359 293.037,182.400 293.422 C 181.630 293.573,180.460 293.985,179.800 294.338 C 178.868 294.836,177.039 295.012,171.600 295.128 C 167.645 295.212,164.383 295.456,164.100 295.688 C 163.454 296.218,163.374 321.230,164.014 322.426 C 164.542 323.412,174.023 323.542,179.056 322.631 C 180.785 322.319,183.273 321.941,184.585 321.792 C 185.897 321.643,187.839 321.179,188.900 320.761 C 189.961 320.342,191.228 319.999,191.715 319.997 C 192.202 319.996,193.140 319.637,193.800 319.200 C 194.460 318.763,195.251 318.404,195.558 318.403 C 195.865 318.401,197.460 317.725,199.102 316.900 C 203.370 314.756,204.128 314.330,204.725 313.732 C 205.018 313.439,205.415 313.200,205.608 313.200 C 205.801 313.200,207.093 312.274,208.479 311.142 C 215.335 305.544,221.070 298.734,223.813 292.937 C 224.357 291.787,224.981 290.735,225.201 290.600 C 225.420 290.464,225.600 290.030,225.600 289.636 C 225.600 289.242,226.050 288.073,226.600 287.038 C 227.150 286.004,227.600 284.800,227.600 284.363 C 227.600 283.926,227.935 282.900,228.345 282.084 C 228.755 281.268,229.210 279.665,229.356 278.523 C 229.502 277.381,229.893 275.796,230.225 275.002 C 232.171 270.345,232.165 245.641,230.217 240.980 C 229.890 240.195,229.498 238.619,229.346 237.477 C 229.195 236.335,228.744 234.680,228.344 233.800 C 227.945 232.920,227.608 231.840,227.596 231.400 C 227.585 230.960,227.132 229.700,226.591 228.600 C 226.050 227.500,225.606 226.366,225.604 226.079 C 225.602 225.793,225.256 224.893,224.835 224.079 C 224.414 223.266,223.588 221.520,222.999 220.200 C 222.411 218.880,221.763 217.530,221.560 217.200 C 221.356 216.870,220.834 215.880,220.400 215.000 C 219.966 214.120,219.428 213.130,219.205 212.800 C 218.982 212.470,218.610 211.750,218.379 211.200 C 218.148 210.650,217.525 209.480,216.994 208.600 C 216.464 207.720,215.661 206.370,215.211 205.600 C 214.238 203.937,213.632 202.939,212.809 201.639 C 211.903 200.209,210.761 198.306,209.253 195.715 C 208.513 194.442,207.662 193.121,207.364 192.780 C 207.065 192.439,206.164 190.909,205.361 189.380 C 204.558 187.851,203.653 186.316,203.350 185.969 C 203.048 185.621,202.800 185.150,202.800 184.922 C 202.800 184.694,202.451 184.064,202.025 183.522 C 201.598 182.980,201.132 182.069,200.989 181.498 C 200.845 180.926,200.384 180.148,199.964 179.767 C 199.544 179.387,199.200 178.779,199.200 178.416 C 199.200 178.053,198.750 177.145,198.200 176.400 C 197.650 175.655,197.200 174.730,197.200 174.346 C 197.200 173.962,197.033 173.544,196.829 173.418 C 196.475 173.199,194.374 169.031,192.688 165.200 C 192.252 164.210,191.581 162.770,191.198 162.000 C 190.814 161.230,190.368 159.970,190.206 159.200 C 190.044 158.430,189.662 157.517,189.359 157.172 C 189.055 156.827,188.630 155.612,188.414 154.472 C 188.198 153.333,187.768 151.905,187.459 151.300 C 185.690 147.837,185.786 128.832,187.591 125.200 C 187.973 124.430,188.404 123.310,188.548 122.710 C 188.979 120.917,191.269 117.658,194.074 114.847 C 196.154 112.764,201.390 109.038,202.856 108.599 C 203.375 108.444,204.234 108.043,204.764 107.708 C 205.293 107.372,206.643 106.861,207.764 106.571 C 208.884 106.281,210.784 105.764,211.987 105.422 C 213.506 104.990,215.927 104.800,219.913 104.800 C 228.032 104.800,227.200 106.374,227.200 91.009 C 227.200 78.066,227.199 78.044,226.311 77.423 C 225.194 76.640,216.438 76.612,212.200 77.378 M258.800 78.000 C 257.691 79.109,257.515 320.730,258.623 322.311 L 259.245 323.200 291.809 323.200 C 323.594 323.200,324.382 323.182,324.786 322.426 C 325.408 321.263,325.347 296.307,324.720 295.680 C 324.361 295.321,319.492 295.193,305.420 295.172 C 295.069 295.156,286.283 295.018,285.896 294.865 C 284.802 294.432,284.802 212.368,285.896 211.935 C 286.283 211.782,294.370 211.644,303.867 211.628 C 313.364 211.613,321.419 211.491,321.767 211.357 C 322.636 211.024,322.738 183.978,321.874 183.261 C 321.515 182.964,315.659 182.789,303.507 182.712 C 293.694 182.650,285.563 182.497,285.437 182.371 C 284.915 181.848,285.168 105.467,285.692 105.135 C 285.971 104.957,294.759 104.809,305.220 104.806 C 319.473 104.802,324.360 104.680,324.720 104.320 C 325.407 103.633,325.407 78.367,324.720 77.680 C 323.749 76.709,259.781 77.019,258.800 78.000 M101.154 78.544 C 101.487 78.946,101.605 107.298,101.601 186.681 C 101.597 292.200,101.612 294.287,102.364 294.967 C 103.069 295.605,104.578 295.657,121.207 295.616 C 134.369 295.584,139.436 295.698,139.842 296.035 C 140.600 296.664,140.674 321.166,139.920 321.920 C 139.555 322.285,131.989 322.400,108.310 322.400 L 77.180 322.400 76.790 321.374 C 76.233 319.909,76.257 79.815,76.814 78.774 C 77.353 77.766,100.328 77.549,101.154 78.544 M225.626 78.414 C 226.364 78.809,226.400 79.371,226.400 90.640 C 226.400 104.660,226.584 103.998,222.686 104.006 C 217.641 104.017,210.304 104.771,209.386 105.373 C 208.908 105.686,207.816 106.062,206.958 106.208 C 206.101 106.355,204.912 106.818,204.316 107.237 C 203.720 107.657,202.990 108.000,202.694 108.000 C 202.398 108.000,201.545 108.450,200.800 109.000 C 200.055 109.550,199.283 110.000,199.086 110.000 C 198.511 110.000,196.604 111.581,193.379 114.731 C 190.538 117.505,189.670 118.724,188.206 122.000 C 187.861 122.770,187.369 123.760,187.112 124.200 C 186.854 124.640,186.417 126.620,186.140 128.600 C 184.757 138.477,184.736 138.756,185.168 141.894 C 186.085 148.555,186.744 151.931,187.359 153.121 C 187.712 153.802,188.006 154.774,188.013 155.280 C 188.019 155.786,188.468 157.100,189.009 158.200 C 189.550 159.300,189.994 160.434,189.996 160.721 C 189.998 161.007,190.340 161.907,190.756 162.721 C 191.172 163.534,191.993 165.280,192.582 166.600 C 193.171 167.920,193.822 169.270,194.029 169.600 C 194.236 169.930,194.585 170.605,194.803 171.100 C 195.021 171.595,195.379 172.405,195.597 172.900 C 195.815 173.395,196.166 174.070,196.376 174.400 C 196.586 174.730,197.030 175.540,197.362 176.200 C 198.878 179.215,199.681 180.716,200.572 182.200 C 201.100 183.080,201.908 184.520,202.367 185.400 C 202.827 186.280,203.645 187.720,204.187 188.600 C 204.729 189.480,205.455 190.740,205.801 191.400 C 206.147 192.060,206.960 193.410,207.607 194.400 C 208.254 195.390,208.980 196.650,209.219 197.200 C 209.458 197.750,209.981 198.560,210.381 199.000 C 210.781 199.440,211.231 200.205,211.381 200.700 C 211.531 201.195,211.802 201.600,211.984 201.600 C 212.165 201.600,212.601 202.320,212.953 203.200 C 213.305 204.080,213.748 204.800,213.936 204.800 C 214.124 204.800,214.575 205.475,214.937 206.300 C 215.299 207.125,216.033 208.520,216.568 209.400 C 217.104 210.280,218.278 212.440,219.178 214.200 C 220.078 215.960,220.975 217.670,221.172 218.000 C 221.368 218.330,222.011 219.680,222.599 221.000 C 223.188 222.320,224.014 224.066,224.435 224.879 C 224.856 225.693,225.202 226.593,225.204 226.879 C 225.206 227.166,225.650 228.300,226.191 229.400 C 226.732 230.500,227.185 231.850,227.196 232.400 C 227.208 232.950,227.545 234.120,227.944 235.000 C 228.344 235.880,228.795 237.537,228.947 238.682 C 229.099 239.827,229.496 241.537,229.830 242.482 C 231.257 246.519,231.410 270.166,230.026 272.752 C 229.818 273.140,229.445 274.704,229.196 276.229 C 228.947 277.753,228.396 279.843,227.972 280.874 C 227.547 281.905,227.194 283.075,227.187 283.474 C 227.181 283.873,226.732 285.100,226.191 286.200 C 225.650 287.300,225.206 288.442,225.204 288.737 C 225.202 289.032,224.840 289.731,224.400 290.291 C 223.960 290.850,223.600 291.546,223.600 291.836 C 223.600 292.127,223.150 293.028,222.600 293.838 C 222.050 294.649,221.600 295.557,221.600 295.856 C 221.600 296.155,221.454 296.400,221.276 296.400 C 221.098 296.400,220.153 297.608,219.176 299.085 C 217.281 301.949,210.633 308.902,208.299 310.461 C 207.525 310.977,205.836 312.099,204.546 312.954 C 203.256 313.809,201.712 314.844,201.116 315.254 C 200.520 315.664,199.837 316.000,199.598 316.000 C 199.359 316.000,198.318 316.450,197.285 317.000 C 196.252 317.550,195.130 318.000,194.792 318.000 C 194.454 318.000,193.795 318.268,193.327 318.596 C 192.859 318.924,191.514 319.384,190.338 319.618 C 189.162 319.852,187.570 320.296,186.800 320.603 C 183.318 321.994,164.725 322.624,164.243 321.367 C 163.684 319.911,163.979 297.278,164.564 296.693 C 164.981 296.276,166.862 296.060,171.750 295.867 C 176.196 295.692,178.934 295.400,180.085 294.977 C 181.028 294.631,182.673 294.101,183.740 293.800 C 184.807 293.498,185.992 292.970,186.372 292.626 C 186.752 292.282,187.329 292.000,187.654 292.000 C 187.979 292.000,188.855 291.550,189.600 291.000 C 190.345 290.450,191.130 290.000,191.344 290.000 C 192.693 290.000,200.914 281.078,201.419 279.066 C 201.566 278.480,201.840 278.000,202.027 278.000 C 202.215 278.000,202.567 277.235,202.810 276.300 C 203.054 275.365,203.556 273.700,203.926 272.600 C 204.913 269.671,204.913 253.528,203.926 250.600 C 203.555 249.500,203.072 247.790,202.853 246.800 C 202.367 244.613,200.979 240.567,200.246 239.200 C 199.950 238.650,199.580 237.660,199.423 237.000 C 199.266 236.340,198.898 235.530,198.606 235.200 C 198.314 234.870,197.876 233.856,197.634 232.947 C 197.392 232.037,196.947 231.088,196.645 230.838 C 196.343 230.587,195.994 229.868,195.868 229.239 C 195.742 228.611,195.360 227.818,195.020 227.477 C 194.679 227.136,194.400 226.599,194.400 226.284 C 194.400 225.969,193.950 225.049,193.400 224.238 C 192.850 223.428,192.400 222.527,192.400 222.236 C 192.400 221.946,192.073 221.279,191.673 220.754 C 191.273 220.229,190.711 219.215,190.424 218.500 C 190.138 217.785,189.772 217.200,189.612 217.200 C 189.452 217.200,189.025 216.525,188.663 215.700 C 188.301 214.875,187.569 213.480,187.036 212.600 C 186.503 211.720,185.692 210.280,185.233 209.400 C 184.773 208.520,183.955 207.080,183.413 206.200 C 182.871 205.320,182.162 204.046,181.837 203.368 C 181.512 202.691,180.966 201.904,180.623 201.619 C 180.280 201.335,180.000 200.854,180.000 200.551 C 180.000 200.248,179.685 199.679,179.300 199.288 C 178.915 198.896,178.278 197.951,177.884 197.188 C 176.750 194.991,176.176 194.057,175.496 193.303 C 175.147 192.916,174.742 192.118,174.595 191.529 C 174.448 190.941,173.984 190.148,173.564 189.767 C 173.144 189.387,172.800 188.858,172.800 188.592 C 172.800 188.326,172.465 187.679,172.055 187.154 C 171.645 186.629,171.171 185.750,171.000 185.200 C 170.829 184.650,170.355 183.771,169.945 183.246 C 169.535 182.721,169.200 181.978,169.200 181.595 C 169.200 181.212,168.940 180.682,168.622 180.418 C 168.304 180.154,167.750 179.052,167.390 177.969 C 167.030 176.886,166.584 176.000,166.400 176.000 C 166.215 176.000,165.935 175.415,165.778 174.700 C 165.622 173.985,165.157 172.773,164.747 172.006 C 164.336 171.239,164.000 170.351,164.000 170.032 C 164.000 169.713,163.662 168.721,163.249 167.826 C 162.105 165.349,161.256 161.880,159.615 152.976 C 158.719 148.112,158.506 137.166,159.235 133.400 C 159.447 132.300,159.815 129.870,160.051 128.000 C 160.287 126.130,160.745 123.790,161.067 122.800 C 161.390 121.810,161.824 120.179,162.031 119.176 C 162.239 118.173,162.767 116.650,163.204 115.792 C 163.642 114.933,164.000 113.990,164.000 113.695 C 164.000 113.400,164.345 112.493,164.767 111.679 C 165.189 110.866,165.737 109.750,165.986 109.200 C 166.235 108.650,166.876 107.480,167.411 106.600 C 167.946 105.720,168.702 104.376,169.092 103.612 C 169.481 102.849,170.070 101.916,170.400 101.538 C 170.730 101.160,171.360 100.345,171.800 99.727 C 173.115 97.880,181.945 89.271,182.804 88.999 C 183.242 88.860,183.600 88.581,183.600 88.378 C 183.600 88.176,184.185 87.732,184.900 87.391 C 185.615 87.051,186.920 86.329,187.800 85.789 C 189.680 84.634,191.823 83.600,192.338 83.600 C 192.538 83.600,192.917 83.342,193.179 83.026 C 193.441 82.710,194.228 82.328,194.928 82.177 C 195.627 82.026,196.868 81.564,197.684 81.151 C 198.500 80.738,199.580 80.392,200.084 80.382 C 200.588 80.373,201.720 80.080,202.600 79.731 C 206.025 78.374,223.666 77.365,225.626 78.414 M323.791 78.396 L 324.833 78.793 324.717 90.964 C 324.652 97.658,324.450 103.284,324.267 103.467 C 324.084 103.650,315.212 103.890,304.552 104.000 C 287.908 104.172,285.117 104.285,284.791 104.800 C 284.188 105.755,284.275 182.115,284.880 182.720 C 285.239 183.079,289.816 183.202,302.980 183.206 C 312.671 183.209,320.827 183.357,321.105 183.533 C 321.500 183.783,321.588 186.834,321.505 197.427 L 321.400 211.000 303.436 211.104 C 290.984 211.176,285.307 211.345,284.936 211.653 C 284.151 212.305,284.138 294.485,284.923 295.136 C 285.279 295.431,291.602 295.607,304.690 295.685 C 315.274 295.748,324.084 295.950,324.267 296.133 C 325.153 297.018,324.878 320.966,323.974 321.700 C 322.875 322.592,260.565 322.805,259.680 321.920 C 258.786 321.026,259.005 78.953,259.900 78.432 C 260.848 77.880,322.342 77.846,323.791 78.396 " stroke="none" fill="#f4888c" fill-rule="evenodd"></path></g></svg>